<svg width="38" height="71" viewBox="0 0 38 71" fill="none" xmlns="http://www.w3.org/2000/svg">
<path d="M4.304 66.176C3.6 66.176 2.97067 66.0107 2.416 65.68C1.872 65.3387 1.44 64.8693 1.12 64.272C0.810667 63.664 0.656 62.96 0.656 62.16C0.656 61.36 0.810667 60.656 1.12 60.048C1.44 59.44 1.872 58.9707 2.416 58.64C2.97067 58.2987 3.6 58.128 4.304 58.128C4.89067 58.128 5.42933 58.2507 5.92 58.496C6.41067 58.7307 6.82133 59.0773 7.152 59.536L6.016 60.384C5.62133 59.7547 5.05067 59.44 4.304 59.44C3.65333 59.44 3.12 59.68 2.704 60.16C2.29867 60.64 2.096 61.3067 2.096 62.16C2.096 63.0027 2.29867 63.664 2.704 64.144C3.12 64.624 3.65333 64.864 4.304 64.864C5.05067 64.864 5.62667 64.5547 6.032 63.936L7.152 64.768C6.82133 65.2267 6.41067 65.5787 5.92 65.824C5.42933 66.0587 4.89067 66.176 4.304 66.176ZM9.3645 66V54.528H10.8045V66H9.3645ZM16.6546 66.176C15.9506 66.176 15.3213 66.0107 14.7666 65.68C14.2226 65.3387 13.7906 64.864 13.4706 64.256C13.1613 63.648 13.0066 62.944 13.0066 62.144C13.0066 61.344 13.1613 60.6453 13.4706 60.048C13.7906 59.44 14.2226 58.9707 14.7666 58.64C15.3213 58.2987 15.9506 58.128 16.6546 58.128C17.3586 58.128 17.9826 58.2987 18.5266 58.64C19.0813 58.9707 19.5133 59.44 19.8226 60.048C20.1426 60.6453 20.3026 61.344 20.3026 62.144C20.3026 62.944 20.1426 63.648 19.8226 64.256C19.5133 64.864 19.0813 65.3387 18.5266 65.68C17.9826 66.0107 17.3586 66.176 16.6546 66.176ZM16.6546 64.864C17.3053 64.864 17.8333 64.624 18.2386 64.144C18.6546 63.6533 18.8626 62.9867 18.8626 62.144C18.8626 61.3013 18.6546 60.64 18.2386 60.16C17.8333 59.68 17.3053 59.44 16.6546 59.44C16.004 59.44 15.4706 59.68 15.0546 60.16C14.6493 60.64 14.4466 61.3013 14.4466 62.144C14.4466 62.9867 14.6493 63.6533 15.0546 64.144C15.4706 64.624 16.004 64.864 16.6546 64.864ZM25.216 66.16C24.5653 66.16 23.9573 66.0427 23.392 65.808C22.8267 65.5733 22.3467 65.2107 21.952 64.72L22.896 63.792C23.472 64.528 24.2667 64.896 25.28 64.896C25.7493 64.896 26.1227 64.8107 26.4 64.64C26.6773 64.4693 26.816 64.1867 26.816 63.792C26.816 63.472 26.672 63.2373 26.384 63.088C26.096 62.928 25.584 62.7787 24.848 62.64C24.368 62.544 23.936 62.416 23.552 62.256C23.1787 62.096 22.88 61.8667 22.656 61.568C22.432 61.2587 22.32 60.8587 22.32 60.368C22.32 59.8987 22.448 59.4987 22.704 59.168C22.96 58.8267 23.296 58.5653 23.712 58.384C24.1387 58.2027 24.608 58.112 25.12 58.112C26.368 58.112 27.3173 58.512 27.968 59.312L27.12 60.288C26.8853 59.9787 26.5973 59.7547 26.256 59.616C25.9147 59.4667 25.5413 59.392 25.136 59.392C24.6773 59.392 24.336 59.488 24.112 59.68C23.888 59.8613 23.776 60.08 23.776 60.336C23.776 60.6347 23.904 60.8533 24.16 60.992C24.416 61.1307 24.88 61.2747 25.552 61.424C26.0853 61.5413 26.5547 61.696 26.96 61.888C27.376 62.08 27.696 62.3307 27.92 62.64C28.1547 62.9493 28.272 63.3493 28.272 63.84C28.272 64.576 27.9893 65.1467 27.424 65.552C26.8693 65.9573 26.1333 66.16 25.216 66.16ZM33.6154 66.176C32.89 66.176 32.25 66.0213 31.6954 65.712C31.1407 65.4027 30.7087 64.9493 30.3994 64.352C30.09 63.744 29.9354 63.0133 29.9354 62.16C29.9354 61.3387 30.09 60.6293 30.3994 60.032C30.7087 59.424 31.13 58.9547 31.6634 58.624C32.2074 58.2933 32.8314 58.128 33.5354 58.128C34.2394 58.128 34.8367 58.304 35.3274 58.656C35.8287 58.9973 36.2074 59.456 36.4634 60.032C36.73 60.608 36.8634 61.2373 36.8634 61.92V62.304H31.3434C31.3647 63.1573 31.578 63.808 31.9834 64.256C32.3994 64.6933 32.9487 64.912 33.6314 64.912C34.1754 64.912 34.6234 64.7787 34.9754 64.512C35.338 64.2453 35.642 63.8453 35.8874 63.312L36.9754 64.032C36.6127 64.7787 36.1487 65.3227 35.5834 65.664C35.0287 66.0053 34.3727 66.176 33.6154 66.176ZM31.4234 61.152H35.4554C35.37 60.5973 35.1567 60.1493 34.8154 59.808C34.474 59.4667 34.042 59.296 33.5194 59.296C32.9647 59.296 32.506 59.456 32.1434 59.776C31.7807 60.0853 31.5407 60.544 31.4234 61.152Z" fill="#333631"/>
<path d="M9.75499 48.0459C9.69498 48.1605 9.67595 48.3056 9.58082 48.3955C9.58082 48.4042 9.5735 48.4086 9.56325 48.41C9.56179 48.4115 9.55886 48.4129 9.5574 48.4158C9.55593 48.4144 9.55593 48.4129 9.55447 48.4115C9.53837 48.4144 9.52227 48.4158 9.52812 48.4347C9.59838 48.4855 9.64668 48.3868 9.69937 48.3738C9.70523 48.4463 9.65254 48.4753 9.65254 48.5421C9.654 48.5725 9.67156 48.5841 9.69206 48.5885C9.87941 48.4231 10.0507 48.249 10.2073 48.0619C10.0507 48.0662 9.8838 48.0822 9.75499 48.0459Z" fill="#333631"/>
<path d="M13.0088 42.6299C12.9663 42.6328 12.9253 42.6342 12.8829 42.6357C12.9166 42.6545 12.9561 42.6662 12.9883 42.6865C13.0234 42.6749 13.019 42.6531 13.0088 42.6299Z" fill="#333631"/>
<path d="M6.95936 34.2754C6.95057 34.2928 6.94179 34.3117 6.93301 34.3291C6.94472 34.3189 6.95936 34.3088 6.97546 34.3001C6.9696 34.2928 6.96521 34.2841 6.95936 34.2754Z" fill="#333631"/>
<path d="M15.1677 43.2728C15.175 43.2699 15.1823 43.2656 15.1911 43.2627C15.1853 43.2612 15.1809 43.2598 15.1736 43.2598C15.1721 43.2641 15.1706 43.2685 15.1677 43.2728Z" fill="#333631"/>
<path d="M7.35016 36.6909C7.38529 36.1744 7.48336 35.6855 7.6429 35.2299C7.58289 35.2952 7.52873 35.3881 7.46433 35.4272C7.42188 35.4621 7.49653 35.4534 7.49653 35.4911C7.34577 35.5273 7.17745 35.6202 7.02376 35.6652C6.94033 35.4258 7.1672 35.2894 7.19208 35.0863C7.09402 35.021 6.97399 35.0196 6.91984 34.8237C6.83787 34.8658 6.75444 34.8542 6.69589 34.8948C6.73249 35.0225 6.85983 34.8832 6.91252 34.9659C6.84373 35.0196 6.75005 35.0051 6.66955 34.9558C6.54367 35.3025 6.44853 35.6594 6.37974 36.0322C6.74566 36.1251 7.07352 36.3311 7.35016 36.6909ZM6.75151 35.9191C6.75444 35.8799 6.73395 35.8335 6.72809 35.7914C6.76615 35.758 6.7764 35.8073 6.8086 35.7914C6.80128 35.8393 6.78664 35.8828 6.75151 35.9191Z" fill="#333631"/>
<path d="M6.66369 36.3804C6.60222 36.3383 6.60075 36.2716 6.59929 36.2135C6.4822 36.1802 6.48951 36.3209 6.42365 36.3804C6.38266 36.3659 6.35485 36.3441 6.3329 36.318C6.32412 36.3833 6.31533 36.45 6.30655 36.5168C6.44268 36.495 6.58026 36.5211 6.66369 36.3804Z" fill="#333631"/>
<path d="M19.1094 29.2379C18.9396 29.1857 18.7669 29.1334 18.6205 29.0464C18.0277 29.795 17.4306 30.7917 17.3618 31.5533C17.3896 31.5809 17.4203 31.5881 17.4437 31.6403C17.4408 31.7042 17.4071 31.7506 17.3588 31.7869C17.3647 31.8246 17.3808 31.8739 17.3954 31.9218C17.4408 32.0712 17.492 32.241 17.4159 32.3788C17.3764 32.4499 17.3091 32.4992 17.2169 32.5239C17.1261 32.5485 16.9944 32.5485 16.8758 32.4049C16.8114 32.3251 16.7675 32.225 16.7324 32.1452C16.7192 32.1133 16.7002 32.0712 16.6914 32.0582C16.4426 31.7898 16.0035 31.5533 15.6507 31.3647L15.639 31.3589C15.0462 31.0412 14.37 30.8105 13.6791 30.6872C13.6747 30.6915 13.6704 30.6959 13.6645 30.7003C13.6557 30.6944 13.6484 30.6886 13.6396 30.6814C13.6191 30.677 13.5972 30.6741 13.5767 30.6698C13.2312 30.6132 12.8902 30.5856 12.5565 30.5856C12.0866 30.5856 11.63 30.6408 11.1909 30.751C10.2819 30.9788 9.46372 31.3865 8.75969 31.9639C8.28399 32.3556 7.85806 32.8242 7.49067 33.3609C7.49946 33.3653 7.50677 33.3696 7.51263 33.3784C7.54922 33.2957 7.59899 33.2231 7.70144 33.1898C7.63119 33.316 7.67802 33.4248 7.7395 33.5611C7.63997 33.5205 7.56532 33.6163 7.54044 33.6801C7.49067 33.6685 7.45408 33.6409 7.43652 33.5873C7.46579 33.5466 7.53605 33.535 7.52727 33.4669C7.51995 33.4306 7.45701 33.4668 7.42334 33.4654C7.37211 33.5423 7.32235 33.6206 7.27405 33.7004C7.31064 33.699 7.35748 33.7265 7.39992 33.7599C7.41602 33.7614 7.43213 33.7628 7.4453 33.7657C7.44676 33.7788 7.44823 33.7918 7.44823 33.8034C7.45994 33.8136 7.46872 33.8237 7.47896 33.8339C7.48189 33.9108 7.42042 34.0138 7.52727 34.0486C7.51116 34.0559 7.49506 34.0646 7.47896 34.0718C7.55361 34.1676 7.60777 34.3228 7.71169 34.3344C7.63997 34.4156 7.46725 34.4534 7.39114 34.4142C7.25502 34.5506 7.10133 34.4795 6.95057 34.5332C7.06328 34.8726 7.45115 34.7392 7.65461 34.9379C7.69705 34.9162 7.74096 34.8958 7.78341 34.8741C7.8522 34.7174 7.92978 34.5636 8.01467 34.4142C8.48159 33.6018 9.17391 32.933 10.0741 32.4296C10.721 32.0683 11.4309 31.8565 12.1847 31.797C12.7453 31.7535 13.2517 31.7869 13.7026 31.871C13.7362 31.7898 13.8065 31.7114 13.9031 31.6607C13.9221 31.6998 13.9514 31.6737 13.9689 31.723C13.9587 31.7883 13.9119 31.7361 13.8709 31.7695C13.8811 31.842 13.9968 31.8551 14.048 31.929C14.0436 31.9334 14.0392 31.9392 14.0348 31.9436C14.1973 31.9842 14.3524 32.032 14.4988 32.0843C14.49 31.9508 14.4227 31.7724 14.5749 31.7158C14.6276 31.7637 14.5749 31.7927 14.5925 31.8333C14.6891 31.9145 14.8076 31.8768 14.9072 31.9407C14.9218 32.003 14.8618 32.0509 14.8515 32.1089C14.8808 32.1597 14.9262 32.1191 14.9613 32.1409C15.0111 32.2018 15.0301 32.2569 15.033 32.3091C15.1326 32.3585 15.2292 32.4092 15.3185 32.4615C15.317 32.3033 15.2994 32.1481 15.1414 31.9943C15.1882 31.9305 15.3433 31.8086 15.4165 31.826C15.4868 32.0625 15.5234 32.2975 15.7576 32.4992C15.7371 32.5703 15.6756 32.6341 15.7151 32.7154C15.9259 32.8648 16.1001 33.0142 16.2362 33.1433C16.2391 33.1477 16.2435 33.1506 16.2464 33.1549C16.7382 33.6264 17.1144 34.1066 17.3954 34.6217C17.7467 35.2672 17.9516 35.9796 18.0043 36.7398C18.0234 37.0111 18.0248 37.2693 18.0116 37.5159C18.1053 37.4797 18.1917 37.4419 18.2517 37.3912C18.3278 37.4187 18.4054 37.5304 18.4054 37.6102C18.2605 37.7669 18.1229 37.925 17.9721 38.0817C17.9663 38.0803 17.9604 38.0803 17.9546 38.0788C17.7672 39.3308 17.2052 40.2274 16.7002 40.8048C16.5626 40.9629 16.4206 41.1095 16.2772 41.2444C16.305 41.2922 16.3138 41.3517 16.2889 41.4257C16.1733 41.5026 16.0196 41.5548 15.8703 41.594C15.8249 41.6288 15.7795 41.6636 15.7341 41.6956C15.7898 41.7623 15.8512 41.8232 15.9317 41.8653C15.983 42.3179 15.7561 42.4964 15.538 42.6821C15.5849 42.8155 15.6873 42.8721 15.7561 42.9751C16.1162 42.7691 16.4557 42.5283 16.769 42.2541C16.6738 42.2976 16.5714 42.3368 16.504 42.3803C16.4718 42.3034 16.4235 42.2483 16.3987 42.1627C16.627 42.0902 16.6826 41.8929 16.9695 41.8638C17.0105 41.9277 17.0237 41.9799 17.0178 42.0263C17.2081 41.8421 17.3881 41.6448 17.5535 41.4373C18.0585 40.8062 18.4581 40.0649 18.7084 39.2931C19.004 38.3835 19.1006 37.4332 18.9938 36.4685C18.9806 36.351 18.9704 36.232 18.9616 36.1159C18.9484 35.9462 18.9352 35.7866 18.9118 35.6401C18.8957 35.5298 18.8694 35.421 18.8401 35.3108C18.6147 35.4326 18.2166 35.2585 18.5605 34.9742C18.6322 34.9872 18.6996 35.0192 18.7684 35.054C18.7654 35.0438 18.7625 35.0351 18.7596 35.025C18.6893 34.787 18.6176 34.5419 18.5869 34.2894C18.5737 34.1763 18.5591 34.0617 18.5444 33.9514C18.5152 33.7193 18.4844 33.4915 18.4639 33.2681C18.442 33.2928 18.4273 33.3261 18.3937 33.3377C18.379 33.2797 18.4595 33.2391 18.4346 33.1796C18.3878 33.1056 18.3263 33.1187 18.278 33.0505C18.3307 33.0142 18.3849 32.9765 18.4376 32.9402C18.4171 32.5485 18.4347 32.1684 18.5342 31.7999C18.644 31.3908 18.8284 31.0252 19.0231 30.6364C19.1431 30.397 19.266 30.1504 19.3743 29.8893C19.3802 29.8646 19.3948 29.8429 19.4153 29.8269C19.4431 29.8051 19.4797 29.7964 19.5178 29.7993C19.6085 29.8225 19.7183 29.824 19.7754 29.7689C19.7476 29.4468 19.5002 29.3554 19.1094 29.2379ZM7.4936 34.6724C7.48775 34.6449 7.49214 34.6042 7.46579 34.6042C7.51702 34.5056 7.67217 34.5274 7.68827 34.6434C7.62387 34.6536 7.558 34.6637 7.4936 34.6724ZM7.80829 34.3243C7.84635 34.2706 7.87562 34.214 7.88001 34.1502C7.95173 34.1328 7.91953 34.3576 7.80829 34.3243ZM12.3794 31.4097C12.3779 31.4387 12.3677 31.4648 12.3428 31.4837C12.3413 31.4808 12.3384 31.4779 12.3369 31.475C12.3238 31.4996 12.3135 31.5272 12.3091 31.5576C12.2242 31.5272 12.1759 31.4735 12.1437 31.4126C12.0808 31.4895 12.1042 31.5823 12.0281 31.6563C11.9959 31.578 11.9461 31.5896 11.9022 31.5707C11.8144 31.607 11.7163 31.694 11.6402 31.665C11.6739 31.4779 11.9739 31.4532 12.1115 31.3415C12.1027 31.3168 12.094 31.2922 12.0852 31.2689C12.1071 31.2457 12.1393 31.2298 12.1789 31.2182C12.1789 31.208 12.1789 31.1979 12.1774 31.1877C12.2008 31.1834 12.2272 31.1906 12.252 31.2051C12.3399 31.195 12.435 31.2008 12.4921 31.2095C12.4789 31.2936 12.4262 31.3487 12.3794 31.4097ZM12.6063 31.0209C12.5067 30.8671 12.4057 30.7133 12.6033 30.6118C12.7482 30.6756 12.8302 30.9034 12.8492 31.0252C12.7658 31.0383 12.6926 30.9933 12.6063 31.0209ZM13.6704 31.1079C13.6777 31.0629 13.7172 31.0847 13.7538 31.0716C13.7421 31.1123 13.827 31.1703 13.7567 31.1993C13.7318 31.1471 13.6996 31.1398 13.6704 31.1079ZM14.2061 31.4851C14.1739 31.5606 13.9982 31.4924 14.0275 31.6273C13.8665 31.5852 13.824 31.7187 13.7055 31.6621C13.8123 31.6142 13.7391 31.3879 13.8314 31.3255C13.8782 31.3386 13.8928 31.3821 13.8855 31.4503C14.0231 31.4329 14.0597 31.3154 14.1724 31.2733C14.1709 31.3545 14.2222 31.3865 14.2061 31.4851ZM14.3861 31.134C14.3012 31.1732 14.2427 31.0716 14.1534 31.1442C14.1182 31.0136 13.9704 30.9382 13.8577 31.002C13.8226 30.9498 13.8753 30.9121 13.8196 30.8555C13.8841 30.8279 13.9294 30.9092 13.9894 30.9106C14.0436 30.8729 14.0977 30.8366 14.1504 30.7989C14.228 30.8845 14.3963 31.0165 14.3861 31.134ZM18.723 36.7238C18.8972 36.9284 18.6937 37.0676 18.7435 37.2504C18.5766 37.0938 18.5108 36.8544 18.723 36.7238ZM18.8577 37.8104C18.8489 37.8685 18.8181 37.9207 18.7772 37.9686C18.7962 38.0295 18.8533 37.9802 18.8738 38.0396C18.8562 38.0962 18.8181 38.0367 18.7772 38.0469C18.7552 38.2166 18.7289 38.3835 18.641 38.5315C18.5327 38.3893 18.5517 38.176 18.5444 38.0237C18.7098 37.9787 18.7772 37.912 18.8577 37.8104ZM17.7775 34.301C17.7292 34.333 17.6691 34.3504 17.5989 34.3431C17.5096 34.1792 17.4247 34.0138 17.5213 33.9209C17.5857 33.8586 17.6677 33.8789 17.7526 33.8963C17.8521 33.8644 17.9575 33.8339 17.9868 33.802C18.0878 33.8963 18.0102 34.0762 18.0629 34.185C18.0043 34.2387 17.8887 34.288 17.7775 34.301ZM18.4727 34.346C18.4522 34.3895 18.4068 34.4273 18.3863 34.4708C18.4039 34.5172 18.4756 34.5274 18.3893 34.5984C18.3 34.4969 18.1668 34.3895 18.1536 34.2633C18.259 34.2894 18.3732 34.2749 18.4727 34.346Z" fill="#333631"/>
<path d="M7.25502 33.7354C7.24916 33.7441 7.24477 33.7528 7.23892 33.7629C7.2477 33.7615 7.25795 33.76 7.26819 33.7586C7.2638 33.7499 7.25941 33.7426 7.25502 33.7354Z" fill="#333631"/>
<path d="M6.79103 34.645C6.83348 34.6058 6.84519 34.5492 6.85836 34.4912C6.83494 34.542 6.81299 34.5942 6.79103 34.645Z" fill="#333631"/>
<path d="M9.17098 48.8293C9.13 48.8351 9.08902 48.8409 9.04657 48.8481C9.12122 48.7132 9.17391 48.5072 9.10512 48.2954C9.07731 48.3084 9.04218 48.3171 8.99973 48.32C8.99242 48.291 8.98217 48.2664 8.97046 48.2417C8.59283 48.4767 8.10835 48.6697 7.558 48.7988C7.4453 48.8249 7.32967 48.8423 7.21843 48.8597C6.99009 48.8945 6.77493 48.9279 6.58173 49.0309C6.53196 49.057 6.48366 49.0904 6.43682 49.1296C6.50269 49.1919 6.55831 49.2674 6.58904 49.3762C6.46609 49.4371 6.37388 49.5198 6.21873 49.5561C6.20409 49.5198 6.18653 49.485 6.1675 49.4516C6.15872 49.4661 6.1514 49.4792 6.14408 49.4937C6.05333 49.6634 5.9582 49.9304 6.01967 50.251C6.08114 50.5673 6.47634 50.9474 6.78957 50.9923C7.04718 51.0272 7.44676 50.9184 7.6107 50.7051C7.69705 50.5934 7.7073 50.4672 7.6429 50.3192C7.61509 50.2583 7.57118 50.2452 7.48336 50.2249C7.37358 50.2002 7.19062 50.1582 7.19794 49.8941C7.20233 49.749 7.28283 49.646 7.42481 49.604C7.52727 49.5735 7.65314 49.5764 7.78487 49.5779C7.88587 49.5793 7.98979 49.5808 8.08493 49.5677C8.54892 49.5039 8.89142 49.2471 9.24124 48.9627C9.24271 48.9221 9.22368 48.8771 9.17098 48.8293ZM8.59868 48.8771C8.74798 48.8539 8.85776 48.97 8.98363 48.9105C8.95143 49.0483 8.59722 49.0483 8.59868 48.8771Z" fill="#333631"/>
<path d="M6.61685 38.2096C6.611 38.2328 6.58465 38.2372 6.58173 38.2633C6.48512 38.2575 6.3973 38.2415 6.349 38.1849C6.35778 38.2372 6.36656 38.2894 6.37535 38.3402C6.37827 38.3445 6.3812 38.3474 6.38413 38.3518C6.38266 38.3561 6.3812 38.359 6.37974 38.3634C6.48659 38.9321 6.65052 39.4036 6.77493 39.7111C6.97107 40.1986 7.20965 40.6469 7.49067 41.0531C7.53751 41.0516 7.58728 41.0589 7.63997 41.0763C7.7234 41.1953 7.77463 41.3607 7.86245 41.4738C7.85806 41.4883 7.85074 41.5028 7.84196 41.5159C8.00296 41.7088 8.17568 41.8902 8.3601 42.0614C8.38645 41.9424 8.37181 41.8467 8.20642 41.8147C8.17129 41.6334 8.46403 41.7872 8.45085 41.6349C8.54892 41.6929 8.56063 41.8684 8.73334 41.8264C8.73042 41.7103 8.86508 41.6929 8.89874 41.6044C8.88264 41.4883 8.71285 41.5057 8.7553 41.3737C8.8358 41.3578 8.85483 41.4245 8.91045 41.4405C8.97192 41.4027 8.97778 41.3229 8.99095 41.249C9.0978 41.2751 9.20904 41.4695 9.15049 41.5841C9.08756 41.6044 9.05389 41.5855 9.02169 41.5667C8.98363 41.5899 8.97339 41.6349 8.98656 41.6972C9.10805 41.7611 9.33638 41.8713 9.41981 41.6871C9.46519 41.8089 9.43738 41.8873 9.43152 42.0077C9.52227 41.9758 9.58374 41.9221 9.62619 41.8539C9.59985 41.7799 9.53837 41.6972 9.5091 41.616C9.37737 41.5159 9.25149 41.4085 9.13 41.2954C8.98363 41.1576 8.85044 41.0212 8.72603 40.8863C8.58551 40.8718 8.46549 40.8268 8.29717 40.8485C8.30009 40.7934 8.35718 40.7789 8.37035 40.7296C8.33961 40.6309 8.20349 40.5453 8.27228 40.4394C8.38206 40.4641 8.4128 40.5932 8.48598 40.6585C8.51672 40.6861 8.55038 40.7064 8.58551 40.7267C8.32058 40.4162 8.10689 40.1043 7.93271 39.7735C7.91368 39.7373 7.89465 39.6995 7.87709 39.6633C7.83757 39.685 7.79512 39.701 7.74536 39.7111C7.77902 39.6415 7.80098 39.5661 7.79366 39.4819C7.78488 39.4602 7.77463 39.4399 7.76585 39.4181C7.66778 39.3514 7.53751 39.3833 7.40285 39.4253C7.32528 39.302 7.34723 39.1657 7.23453 39.0917C7.11743 39.0148 7.07206 39.0598 7.31503 39.0525C7.39553 39.1874 7.52434 39.1802 7.66046 39.1468C7.50238 38.7029 7.40285 38.2227 7.36187 37.6975C7.36187 37.6888 7.36041 37.6801 7.36041 37.6728C7.34431 37.6728 7.32967 37.6699 7.31503 37.6641C7.29893 37.6075 7.26673 37.5959 7.24331 37.5611C7.27112 37.5321 7.30771 37.5031 7.34723 37.4755C7.34138 37.3522 7.33845 37.2303 7.33845 37.1114C7.31503 37.0867 7.28869 37.0606 7.25795 37.0374C7.17598 36.975 7.11597 36.9765 7.05742 36.9184C7.10719 36.8604 7.21989 36.8227 7.30625 36.7763C7.20086 36.6297 7.07938 36.8546 6.94618 36.8952C6.91545 36.7618 6.8247 36.5703 6.68272 36.6486C6.63295 36.7458 6.74712 36.8619 6.80274 36.9663C6.65198 37.0301 6.55245 36.9431 6.41047 36.9823C6.37242 36.9068 6.32997 36.8488 6.28313 36.8038C6.2524 37.242 6.27728 37.6627 6.33144 38.05C6.47634 38.0515 6.52903 38.1472 6.61685 38.2096ZM8.20788 41.2431C8.21374 41.2446 8.22105 41.2461 8.22691 41.2475C8.22105 41.1692 8.1025 41.1503 8.14641 41.0517C8.25033 41.0792 8.42597 41.1184 8.34254 41.2736C8.32498 41.2765 8.30741 41.2794 8.28838 41.2809C8.3762 41.3563 8.40255 41.5173 8.41133 41.6421C8.10689 41.8829 7.94003 41.3462 8.20788 41.2431ZM6.86714 38.8479C6.86568 38.7188 6.88325 38.7043 6.88471 38.5999C7.0384 38.6129 7.02961 38.787 7.11743 38.8654C7.07938 38.9495 6.9052 38.8813 6.86714 38.8479ZM6.92716 37.0621C7.06181 37.0983 7.17891 37.1868 7.28722 37.3C7.2155 37.3305 7.1833 37.4247 7.1028 37.4117C7.0545 37.329 7.0706 37.2695 7.1028 37.2129C7.00619 37.2086 6.87593 37.1984 6.92716 37.0621ZM6.81299 37.5887C6.89935 37.58 6.873 37.683 6.90227 37.7309C6.98131 37.77 7.07352 37.6989 7.15256 37.7483C7.12768 38.0863 6.71785 37.7874 6.81299 37.5887ZM6.27874 37.3638C6.26411 37.3058 6.31241 37.2695 6.37535 37.2376C6.38998 37.2768 6.33436 37.2942 6.36803 37.3406C6.32851 37.3754 6.31387 37.3377 6.27874 37.3638Z" fill="#333631"/>
<path d="M9.50032 48.0296C9.55154 48.0195 9.61741 48.0224 9.63937 47.9904C9.6218 47.9411 9.55301 47.8831 9.49885 47.8105C9.45933 47.8541 9.41835 47.8947 9.37737 47.9339C9.32321 47.9846 9.26466 48.034 9.20172 48.0818C9.21197 48.1196 9.21343 48.1587 9.20026 48.195C9.20172 48.195 9.20172 48.195 9.20319 48.195C9.17245 48.3807 9.37737 48.3183 9.50763 48.3444C9.45348 48.2487 9.43738 48.1196 9.50032 48.0296Z" fill="#333631"/>
<path d="M10.3595 47.8732C10.3858 47.8384 10.4107 47.8036 10.4371 47.7688C10.4268 47.7586 10.418 47.7499 10.4078 47.7397C10.3785 47.7731 10.3654 47.821 10.3595 47.8732Z" fill="#333631"/>
<path d="M15.2219 42.0234C15.2263 42.2207 15.216 42.4093 14.976 42.4282C14.9262 42.3353 14.8999 42.2512 14.9028 42.183C14.37 42.4253 13.7816 42.5718 13.1522 42.6211C13.1288 42.6226 13.1039 42.6241 13.0805 42.6255C13.0951 42.656 13.1127 42.6821 13.1507 42.6806C13.2181 42.6835 13.2225 42.64 13.2898 42.6415C13.3396 42.7227 13.404 42.7836 13.4962 42.8083C13.4918 42.8678 13.404 42.8649 13.3644 42.8997C13.3483 42.8286 13.3132 42.7851 13.2854 42.7314C13.1068 42.7662 12.9971 42.7096 12.8624 42.6864C12.7775 42.7125 12.8243 42.8344 12.7438 42.8649C12.6999 42.801 12.678 42.7082 12.6399 42.6371C12.4628 42.6371 12.2886 42.6284 12.1174 42.6124C12.0603 42.6328 12.0193 42.6705 12.0018 42.7416C12.0018 42.7981 12.0559 42.7807 12.0676 42.8214C12.0691 42.8808 12.0398 42.9157 12.0149 42.9548C11.9213 42.9316 11.9227 42.7836 11.8539 42.7271C11.8378 42.7372 11.8217 42.7474 11.8071 42.759C11.8115 42.7749 11.8173 42.7909 11.8261 42.8068C11.7193 42.8649 11.6505 42.9157 11.5217 42.9302C11.5056 42.936 11.488 42.9418 11.4704 42.9461C11.469 42.9577 11.466 42.9708 11.4617 42.9838C11.4909 43.0129 11.5553 42.9954 11.5714 43.0419C11.5802 43.0854 11.5524 43.0999 11.5495 43.1347C11.4734 43.1463 11.4192 43.1246 11.3782 43.0839C11.3577 43.0883 11.3328 43.0825 11.3065 43.0593C11.3153 43.0419 11.3226 43.0245 11.3285 43.0071C11.2904 42.9229 11.2787 42.8083 11.2758 42.7009C11.1923 42.582 11.0518 42.4819 10.945 42.3803C10.9464 42.4021 10.9464 42.4267 10.9406 42.4543C10.8864 42.4079 10.7913 42.3455 10.6918 42.3818C10.7035 42.4529 10.6874 42.5269 10.6303 42.5863C10.6332 42.6197 10.6332 42.6516 10.6288 42.6792C10.5864 42.698 10.5454 42.7184 10.5044 42.7387C10.4722 42.7909 10.4429 42.8431 10.4854 42.9128C10.2439 42.8591 10.3302 43.1565 10.1077 43.1666C10.0375 43.1043 10.1707 43.0854 10.137 43.0012C10.1165 42.9302 10.0624 42.904 10.0097 42.8765C9.82525 42.9534 9.65693 42.9244 9.52813 42.8388C9.51202 42.8446 9.49446 42.8475 9.4769 42.8504C9.43738 42.7894 9.39493 42.7343 9.36273 42.6661C9.25003 42.4848 9.23685 42.244 9.38615 42.0786C9.24417 42.2106 8.9368 42.3557 8.92509 42.5312C8.97778 42.5704 9.03194 42.6081 9.08756 42.6444C9.08024 42.5994 9.07292 42.5559 9.12854 42.5588C9.17245 42.5921 9.1461 42.6357 9.14757 42.685C9.1827 42.7082 9.21636 42.73 9.25149 42.7532C9.28954 42.7503 9.33053 42.7445 9.35834 42.7575C9.36127 42.7793 9.36273 42.801 9.36127 42.8199C9.48861 42.8968 9.62034 42.9708 9.755 43.0404C9.78134 43.0549 9.81354 43.0709 9.8516 43.0897C10.1897 43.2566 10.3463 43.3494 10.3815 43.4568C10.462 43.7063 10.3449 43.908 10.2497 44.0705L10.2483 44.0719C10.2658 44.0908 10.2849 44.1082 10.3053 44.1227C10.2951 44.217 10.2307 44.3069 10.1429 44.3548C10.1473 44.5028 10.1985 44.6087 10.2526 44.7204C10.2951 44.8074 10.3375 44.8974 10.358 45.0047C10.358 45.0062 10.358 45.0062 10.358 45.0076C10.4107 44.9786 10.4722 44.9583 10.5527 44.9496C10.5439 45.0541 10.6259 45.0657 10.7181 45.086C10.7005 45.1411 10.6815 45.205 10.7269 45.2644C10.8074 45.2485 10.8103 45.2325 10.8864 45.2412C10.8454 45.3254 10.7898 45.3994 10.781 45.5082C10.683 45.4908 10.6186 45.4298 10.4693 45.482C10.4532 45.4501 10.4327 45.4211 10.4122 45.395C10.4078 45.395 10.4034 45.395 10.4005 45.3936C10.4093 45.5822 10.399 45.7722 10.3712 45.9637C10.3844 46.1218 10.3566 46.2669 10.2834 46.3757C10.2512 46.4932 10.2117 46.6093 10.1663 46.7253C10.1253 46.8284 10.0785 46.9314 10.0287 47.0315C10.1019 47.0053 10.1473 46.9589 10.2409 46.9488C10.2892 47.046 10.3815 47.0851 10.4224 47.191C10.4795 47.2056 10.5659 47.1823 10.623 47.1968C10.6215 47.2476 10.5908 47.2766 10.5615 47.3086C10.5776 47.3173 10.5937 47.3274 10.6083 47.339C10.6142 47.3245 10.6186 47.3086 10.6215 47.294C10.6464 47.3173 10.6727 47.3361 10.702 47.355C10.9333 46.9575 11.1206 46.5179 11.267 46.0203C11.2933 45.9289 11.3197 45.836 11.346 45.7446C11.4939 45.2238 11.6475 44.6841 11.9374 44.3142C12.2828 43.8746 12.8712 43.8035 13.4391 43.7353C13.6674 43.7078 13.9031 43.6802 14.1182 43.628C14.1504 43.6207 14.1812 43.612 14.2134 43.6048C14.2222 43.5598 14.2514 43.538 14.291 43.5279C14.2895 43.5235 14.288 43.5206 14.2866 43.5163C14.3802 43.4771 14.4754 43.4786 14.5691 43.5003C14.7154 43.4524 14.8618 43.4002 15.0038 43.3407C14.9745 43.2943 14.954 43.2363 14.9247 43.1869C15.1384 43.1884 15.2087 43.0201 15.358 42.9244C15.3477 42.8199 15.3843 42.7169 15.4956 42.6661C15.4136 42.6313 15.358 42.5689 15.2526 42.5573C15.4224 42.3441 15.4253 42.1424 15.2219 42.0234ZM10.4137 43.4974C10.4005 43.3741 10.3478 43.3059 10.2702 43.2667C10.32 43.1347 10.5542 42.9011 10.6786 43.0984C10.6435 43.1246 10.582 43.1318 10.563 43.1695C10.6244 43.2696 10.7327 43.3074 10.8279 43.3639C10.7166 43.4539 10.5498 43.5496 10.4137 43.4974ZM10.5542 45.5009C10.6025 45.5111 10.6244 45.5502 10.6259 45.6068C10.5776 45.5967 10.5556 45.5589 10.5542 45.5009ZM11.9696 43.6077C11.8832 43.67 11.7866 43.7237 11.6666 43.76C11.6373 43.6425 11.5509 43.5961 11.5685 43.4698C11.6358 43.4626 11.6256 43.5612 11.69 43.5598C11.7734 43.5192 11.9783 43.4191 11.9696 43.6077ZM12.0003 43.3335C11.9213 43.3639 11.8656 43.4118 11.7807 43.4379C11.6549 43.3567 11.7178 43.1594 11.7398 43.0491C11.7251 42.9809 11.6271 43.0868 11.5758 43.0375C11.7441 42.8576 12.0135 43.0636 12.0003 43.3335ZM14.127 42.8765C14.1197 42.7923 14.1592 42.7546 14.1446 42.6632C14.2266 42.6255 14.2749 42.5559 14.3773 42.5385C14.3773 42.7358 14.3261 42.8808 14.127 42.8765Z" fill="#333631"/>
<path d="M10.0272 47.0435C9.98626 47.1247 9.94088 47.203 9.89405 47.2814C9.92918 47.264 9.96869 47.2495 10.0141 47.2379C10.0272 47.2611 10.0477 47.277 10.0755 47.2828C10.1004 47.4236 10.0463 47.5396 10.1429 47.6136C10.1926 47.6136 10.2278 47.6034 10.2585 47.5904C10.2043 47.5353 10.1517 47.4787 10.099 47.4207C10.0712 47.2524 10.0799 47.1624 10.0272 47.0435Z" fill="#333631"/>
<path d="M9.38468 48.5635C9.32174 48.6534 9.32906 48.7651 9.3437 48.8783C9.36419 48.8609 9.38468 48.8449 9.40517 48.8275C9.39786 48.8174 9.39054 48.8072 9.38322 48.797C9.41249 48.7245 9.4725 48.6389 9.38468 48.5635Z" fill="#333631"/>
<path d="M9.72865 41.8218C9.74329 41.816 9.75939 41.8117 9.77402 41.8059C9.75939 41.7957 9.74475 41.787 9.73011 41.7769C9.73011 41.7928 9.72865 41.8073 9.72865 41.8218Z" fill="#333631"/>
<path d="M11.8554 42.5839C11.832 42.581 11.81 42.5766 11.7866 42.5737C11.7881 42.5824 11.7895 42.5926 11.791 42.6013C11.8129 42.6216 11.8364 42.639 11.8612 42.655C11.9022 42.6231 11.8847 42.6013 11.8554 42.5839Z" fill="#333631"/>
<path d="M9.41835 42.0483C9.4081 42.057 9.39932 42.0672 9.39054 42.0774C9.40078 42.0672 9.40957 42.057 9.41835 42.0483Z" fill="#333631"/>
<path d="M14.6686 32.064C14.6481 32.064 14.6203 32.093 14.5881 32.1162C14.6642 32.1452 14.7388 32.1757 14.8106 32.2061C14.7667 32.1423 14.7198 32.0857 14.6686 32.064Z" fill="#333631"/>
<path d="M10.4605 47.7367C10.462 47.7353 10.4634 47.7338 10.4649 47.7309C10.4634 47.7295 10.462 47.728 10.4605 47.7266C10.4605 47.7309 10.4605 47.7338 10.4605 47.7367Z" fill="#333631"/>
<path d="M21.7016 26.486C21.7894 26.2887 21.8816 26.0842 21.9914 25.8854C22.1627 25.5779 22.3061 25.2369 22.4451 24.9062C22.4905 24.7974 22.5374 24.6857 22.5842 24.5783C22.9779 23.6672 23.3878 22.7518 23.7508 21.9423C25.5218 17.9904 27.047 13.9428 28.3906 9.61661C28.3877 9.61516 28.3848 9.61226 28.3819 9.60936C28.3877 9.57164 28.4009 9.54262 28.4199 9.51941C28.5721 9.02615 28.7229 8.52999 28.8722 8.02803C28.9059 7.91487 28.941 7.80171 28.9747 7.6871C29.2425 6.79343 29.5206 5.8693 29.5733 4.93501C29.6845 2.97068 29.3889 1.27039 28.7185 0.000976562C26.8245 5.70536 24.8046 11.3807 22.8491 16.8733C22.4861 17.8917 22.1114 18.945 21.7426 19.9823C21.4923 20.6845 21.2157 21.3939 20.9478 22.0786C20.5833 23.0144 20.2057 23.9806 19.8998 24.9265C19.8603 25.0454 19.8252 25.1717 19.79 25.295C19.91 25.1717 20.0798 25.0672 20.3067 25.0208C20.5965 24.9613 20.8673 24.9874 21.0927 25.0933C21.3166 25.1992 21.4806 25.382 21.5552 25.6098C21.6592 25.9319 21.6401 26.2307 21.4981 26.4759C21.3752 26.6877 21.1644 26.8516 20.9039 26.9343C20.7824 26.972 20.6536 26.9924 20.5263 26.9924C20.1252 26.9924 19.7329 26.798 19.5968 26.3801C19.5836 26.3381 19.5544 26.209 19.5471 26.0494C19.4709 26.2307 19.3787 26.4048 19.2572 26.5673C19.2792 26.9387 19.2499 27.3304 19.2207 27.7119C19.1987 27.9847 19.1767 28.2647 19.1738 28.5403C19.3495 28.6491 19.5558 28.7304 19.7725 28.8145C19.8339 28.8377 19.8954 28.8624 19.9569 28.8871C20.1559 28.5679 20.4165 28.2821 20.6712 28.005C20.92 27.7322 21.1776 27.4523 21.3723 27.1418C21.4952 26.9474 21.5947 26.7225 21.7016 26.486ZM29.2601 1.75059C29.2893 1.79266 29.3011 1.85215 29.3318 1.89277C29.2703 1.9595 29.1298 1.82893 29.0991 1.75059C29.1518 1.75059 29.2059 1.75059 29.2601 1.75059ZM28.9556 5.26433C28.9483 5.3064 28.9878 5.3035 28.9732 5.35283C28.9307 5.35283 28.8898 5.35283 28.8473 5.35283C28.8532 5.29335 28.9073 5.28174 28.9556 5.26433ZM29.0273 6.52359C29.0625 6.61354 29.0874 6.71219 29.1342 6.78908C29.1196 6.84711 29.0156 6.78038 28.9732 6.84276C29.0215 7.00089 29.0273 7.07633 28.9556 7.2156C28.7273 7.21996 28.7214 6.93561 28.8663 6.84276C28.8297 6.75426 28.7229 6.73685 28.7229 6.61209C28.8268 6.58597 28.9015 6.52939 29.0273 6.52359ZM28.4536 9.39755C28.3584 9.39755 28.3379 9.32211 28.3277 9.23796C28.4331 9.22926 28.4653 9.29164 28.4536 9.39755ZM28.7039 6.20442C28.6922 6.25665 28.6321 6.26391 28.5604 6.2581C28.5721 6.1638 28.6424 6.23344 28.7039 6.20442ZM28.4711 8.59963C28.4463 8.66927 28.3014 8.61994 28.2209 8.63445C28.2545 8.5503 28.3862 8.59093 28.4711 8.59963ZM27.8637 9.7878C27.8344 9.85308 27.8491 9.96189 27.8461 10.0533C27.7291 10.0446 27.7964 9.85454 27.7393 9.7878C27.7613 9.76314 27.8388 9.76314 27.8637 9.7878ZM27.4334 4.99739C27.489 4.99594 27.5183 5.01915 27.5593 5.03221C27.5271 5.10765 27.4685 5.15553 27.4158 5.2092C27.3236 5.16423 27.3763 5.04092 27.4334 4.99739ZM25.9375 14.1734C25.9155 14.2489 25.9155 14.3287 25.9375 14.4041C25.8892 14.3577 25.8658 14.2852 25.8482 14.2083C25.8833 14.201 25.8804 14.1589 25.9375 14.1734ZM25.4545 16.853C25.4867 16.8574 25.4955 16.8835 25.4896 16.9241C25.4574 16.9212 25.4516 16.9459 25.4179 16.9415C25.4369 16.9183 25.4369 16.8762 25.4545 16.853ZM25.5979 17.1359C25.595 17.2302 25.5072 17.2868 25.4194 17.2418C25.4164 17.1461 25.4925 17.1272 25.5979 17.1359ZM24.8822 17.2433C24.9056 17.3274 24.9803 17.3593 25.0973 17.3492C25.0783 17.2549 25.0534 17.1678 24.9363 17.1722C25.0022 17.0314 25.2247 16.882 25.3842 16.9952C25.3901 17.0561 25.3037 17.1156 25.3667 17.1722C25.2013 17.2215 25.1032 17.3376 25.0622 17.5087C24.9056 17.6059 24.7709 17.5595 24.6861 17.4202C24.7344 17.3448 24.7988 17.2853 24.8822 17.2433ZM24.7753 19.0886C24.7402 19.1176 24.6451 19.1452 24.5968 19.106C24.5719 18.9668 24.7797 18.9769 24.7753 19.0886ZM24.4709 17.2433C24.5265 17.4696 24.3128 17.5842 24.3274 17.8294C24.1342 17.6509 24.3055 17.3274 24.4709 17.2433ZM24.1299 16.7645C24.1986 16.7674 24.2001 16.837 24.2557 16.853C24.2352 16.8719 24.1167 16.837 24.1299 16.7645ZM23.8078 16.7282C23.8781 16.7529 23.9118 16.8138 23.9147 16.9052C23.8883 16.9328 23.8225 16.9212 23.7712 16.9226C23.7727 16.8109 23.7815 16.8167 23.8078 16.7282ZM23.8796 17.0474C23.9425 17.1011 23.7961 17.0822 23.7727 17.0648C23.783 17.0068 23.8883 17.088 23.8796 17.0474Z" fill="#333631"/>
<path d="M11.9403 4.43303C11.8934 4.32858 11.8217 4.00361 11.9578 3.93687C11.9871 3.99635 11.9637 4.10806 11.993 4.16754C12.0501 4.19366 12.1262 4.20091 12.1906 4.22122C12.132 4.29376 12.0808 4.41562 12.1188 4.48671C12.0193 4.63614 11.7149 4.88132 11.5158 4.76526C11.5729 5.54577 11.7222 6.25229 11.9227 6.99652C11.9242 7.00088 11.9256 7.00668 11.9271 7.01103C11.9388 7.05601 11.952 7.10098 11.9637 7.14595C12.0647 7.08502 12.2374 7.07051 12.3501 7.13145C12.2769 7.30118 12.4657 7.34181 12.4218 7.53911C12.353 7.66678 12.2301 7.65227 12.0984 7.63631C13.9338 14.2257 16.4777 20.1607 18.9777 25.6112C19.2133 24.822 19.4973 24.0734 19.7739 23.3466C19.9174 22.9665 20.0652 22.5748 20.2057 22.1831C19.2104 19.7502 18.3161 17.1591 17.4511 14.6522C17.3179 14.2677 17.1847 13.8789 17.0485 13.4887C17.0178 13.4756 16.9885 13.4321 16.9958 13.3915C17.0046 13.3929 17.0105 13.3958 17.0178 13.4002C16.7514 12.6298 16.4792 11.8537 16.2055 11.0891C15.9522 10.3811 15.6917 9.65867 15.44 8.9594C15.197 8.28625 14.9525 7.6073 14.7081 6.92544C14.6891 6.93849 14.6671 6.94865 14.6408 6.9559C14.5515 6.90803 14.4886 6.83404 14.3729 6.81373C14.3846 6.68316 14.4783 6.63238 14.5939 6.60627C14.2968 5.77499 14.0011 4.93935 13.7084 4.09936C13.5825 4.1777 13.6001 4.48236 13.3879 4.34744C13.401 4.19366 13.4932 4.02827 13.4771 3.90351C13.3454 3.92091 13.1903 3.82662 13.2093 3.63802C13.3 3.5974 13.3835 3.55097 13.5137 3.54952C13.5313 3.5974 13.5503 3.64237 13.5489 3.7091C13.5577 3.71491 13.5679 3.71926 13.5781 3.72361C13.5181 3.54807 13.4567 3.37253 13.3966 3.19699C13.2517 3.26082 13.038 3.25647 12.8492 3.21149C12.7658 3.03015 12.8565 2.80383 12.8844 2.62539C12.9897 2.59057 13.0951 2.58331 13.1917 2.59927C13.161 2.50787 13.1288 2.41503 13.0981 2.32363C13.0322 2.34974 12.9575 2.35555 12.8844 2.32363C12.8653 2.22643 12.9341 2.14664 12.8844 2.07555C12.7951 2.08715 12.798 2.19161 12.7775 2.2714C12.7058 2.24239 12.6414 2.20612 12.5989 2.14664C12.5814 1.9885 12.6912 1.98415 12.7599 1.95078C12.7848 1.75783 12.7643 1.55618 12.7892 1.39514C12.6355 0.929449 12.4833 0.463755 12.3355 -0.000488281C11.93 0.777119 11.6636 1.77814 11.5465 2.97937C11.57 2.97937 11.5934 2.97937 11.6183 2.97937C11.5963 3.04756 11.6124 3.23325 11.6534 3.26372C11.6197 3.31885 11.5729 3.3232 11.5187 3.3116C11.4851 3.79035 11.4836 4.23138 11.5085 4.6492C11.6827 4.60567 11.7983 4.50702 11.9403 4.43303ZM16.7909 18.7158C16.7514 18.6548 16.7792 18.5344 16.7909 18.4677C16.848 18.5301 16.8817 18.6142 16.9168 18.6984C16.8553 18.6838 16.848 18.7245 16.7909 18.7158ZM17.0427 19.0523C17.0002 19.0407 16.9593 19.0291 16.9534 18.9813C16.9827 18.9813 17.0134 18.9813 17.0427 18.9813C17.0427 19.0059 17.0427 19.0291 17.0427 19.0523ZM17.2213 18.3966C17.2417 18.3995 17.2535 18.3922 17.2564 18.3792C17.3149 18.3893 17.2827 18.4459 17.2739 18.4851C17.2564 18.4851 17.2388 18.4851 17.2198 18.4851C17.2213 18.4546 17.2213 18.4256 17.2213 18.3966ZM17.1056 15.0932C17.1217 15.2165 17.072 15.2717 17.0705 15.3776C16.9739 15.3021 16.9358 15.1672 16.9095 15.0221C16.9563 15.0627 17.0237 15.086 17.1056 15.0932ZM16.8012 15.749C16.8568 15.7591 16.9183 15.7635 16.9622 15.7838C16.8919 15.8447 16.6943 16.0217 16.6036 15.8897C16.7134 15.9013 16.7441 15.8287 16.8012 15.749ZM16.2464 11.7391C16.2421 11.8145 16.2933 11.8348 16.2816 11.9161C16.2025 11.9175 16.1689 11.874 16.1381 11.8276C16.1498 11.7739 16.1791 11.7376 16.2464 11.7391ZM15.7459 11.1181C15.8673 11.1878 15.9376 11.3067 16.1045 11.3314C16.1176 11.4068 16.1469 11.4678 16.1396 11.5621C16.0723 11.5896 16.0327 11.6462 15.961 11.668C15.9025 11.6549 15.8673 11.6186 15.8542 11.5621C15.8952 11.5664 15.9215 11.5577 15.9259 11.5272C15.9332 11.3227 15.7151 11.343 15.7459 11.1181ZM15.0287 10.6742C15.1077 10.7496 15.1458 10.7018 15.2614 10.6916C15.3668 10.8497 15.2716 11.0949 15.1004 11.1355C15.0521 11.0064 15.0184 10.8628 15.0287 10.6742ZM14.25 6.3669C14.2456 6.43363 14.1944 6.45249 14.1783 6.50907C14.0802 6.4728 14.1885 6.36254 14.25 6.3669ZM14.0172 6.49166C14.0465 6.6643 14.1139 6.79777 14.2675 6.8471C14.1314 7.10968 13.5269 7.06906 13.4801 6.7586C13.6133 6.62368 13.723 6.467 14.0172 6.49166ZM11.9944 5.46307C11.9842 5.59364 12.0779 5.71986 11.9944 5.81851C11.9344 5.81271 11.9169 5.76483 11.8876 5.73001C11.8671 5.65602 11.9256 5.66038 11.9227 5.60525C11.8422 5.55012 11.7573 5.46017 11.8159 5.3209C11.873 5.30204 11.9813 5.31655 12.0486 5.33831C12.0896 5.38473 11.9974 5.40504 11.9944 5.46307ZM13.2474 7.75092C13.1756 7.96273 13.0585 8.13102 12.8361 8.19485C12.8243 8.31382 12.9414 8.30366 12.9619 8.39071C12.8961 8.48936 12.7717 8.39651 12.675 8.3733C12.6106 8.37475 12.6253 8.45454 12.5492 8.44438C12.4979 8.35153 12.6414 8.31672 12.656 8.23112C12.656 8.17164 12.555 8.21371 12.5301 8.17744C12.3384 7.81766 12.7468 7.66678 12.959 7.53911C13.0263 7.63921 13.1639 7.66823 13.2474 7.75092ZM12.3706 6.45539C12.3443 6.23488 12.517 6.21021 12.6033 6.09996C12.7687 6.32047 12.9473 6.62223 12.9429 6.95155C12.7892 6.75135 12.6194 6.5642 12.3706 6.45539ZM12.817 3.43926C12.7746 3.6061 12.9722 3.74972 12.9063 3.93542C12.7512 3.84257 12.5667 3.88319 12.3516 3.86434C12.4672 3.68299 12.4833 3.40444 12.817 3.43926ZM12.4233 4.7522C12.3355 4.87842 12.3018 5.05831 12.2257 5.19613C12.0984 5.18598 12.1262 5.02349 12.0105 5.00028C12.1232 4.94515 12.1598 4.81603 12.1364 4.62743C12.2784 4.62453 12.2872 4.75365 12.4233 4.7522Z" fill="#333631"/>
<path d="M20.7883 26.2786C20.8644 26.2337 20.9551 26.1437 20.9478 25.9711C20.9434 25.8797 20.9024 25.7941 20.8351 25.7346C20.7619 25.6722 20.6668 25.6432 20.5585 25.6519C20.3506 25.6708 20.2116 25.7955 20.2042 25.9725C20.1984 26.1147 20.2525 26.2221 20.3579 26.283C20.4838 26.3555 20.6595 26.3541 20.7883 26.2786Z" fill="#333631"/>
<path d="M21.8333 28.5606C21.8187 28.4083 21.8172 28.2429 21.8172 28.0819C21.8158 27.9034 21.8158 27.7221 21.7953 27.564C21.7733 27.5944 21.7528 27.6249 21.7323 27.6554C21.4908 28.0093 21.2405 28.3749 20.841 28.6013C20.9054 28.7217 20.9712 28.8218 21.0561 28.8987C21.1805 28.8421 21.3093 28.787 21.4337 28.7347C21.5655 28.6781 21.7016 28.6201 21.8333 28.5606Z" fill="#333631"/>
<path d="M33.5121 35.6531C33.5048 35.6473 33.4989 35.6415 33.4916 35.6343C33.493 35.6401 33.4945 35.6459 33.496 35.6517C33.5018 35.6502 33.5077 35.6517 33.5121 35.6531Z" fill="#333631"/>
<path d="M33.7141 37.2246C33.7155 37.3552 33.7111 37.4828 33.7038 37.612C33.7448 37.5481 33.8107 37.5032 33.8414 37.4321C33.7975 37.3639 33.7536 37.2957 33.7141 37.2246Z" fill="#333631"/>
<path d="M34.9787 49.7751C34.9479 49.762 34.9187 49.7489 34.885 49.7402C34.9157 49.7576 34.9494 49.7649 34.9801 49.7823C34.9801 49.7809 34.9801 49.778 34.9787 49.7751Z" fill="#333631"/>
<path d="M34.6889 38.1025C34.6464 38.0967 34.6025 38.0981 34.5542 38.1083C34.4664 38.2069 34.5001 38.3462 34.5454 38.4898C34.421 38.5667 34.2834 38.545 34.2088 38.6567C34.1312 38.7727 34.1766 38.8177 34.1693 38.5769C34.4576 38.4071 34.1019 38.0256 34.2176 37.7993C34.2015 37.7441 34.1678 37.7412 34.1298 37.7485C34.1488 37.8036 34.1444 37.8631 34.0961 37.9342C33.9878 37.8616 33.8663 37.8094 33.6848 37.8341C33.6072 38.6146 33.3686 39.3559 32.9705 40.0291C32.909 40.1321 32.8461 40.2336 32.7788 40.3323C32.8154 40.3308 32.8505 40.3395 32.8812 40.3613C32.8593 40.4324 32.7583 40.4251 32.6924 40.4527C32.6836 40.4658 32.6748 40.4774 32.6661 40.489C32.669 40.5252 32.6968 40.5383 32.6851 40.5905C32.6412 40.5862 32.6178 40.5847 32.5958 40.5818C32.3572 40.8908 32.085 41.1737 31.782 41.4262C31.4937 41.6684 31.1863 41.8759 30.8628 42.0485C30.7296 42.3692 30.7047 42.7797 30.8233 43.2062C30.8189 43.2164 30.813 43.2266 30.8072 43.2353C30.8335 43.2483 30.8584 43.2643 30.8833 43.2802C31.3619 43.0423 31.7937 42.7725 32.1816 42.4722C32.2021 42.4112 32.2284 42.3576 32.3162 42.3648C32.6851 42.063 33.013 41.7323 33.2998 41.3681C33.2574 41.3188 33.2135 41.2738 33.1842 41.2129C33.2428 41.2434 33.2896 41.2854 33.3189 41.3449C33.6555 40.914 33.9365 40.4367 34.1649 39.9145C34.1605 39.9101 34.1561 39.9058 34.1517 39.9014C34.1927 39.826 34.222 39.7375 34.2673 39.6678C34.4737 39.1485 34.6142 38.6218 34.6889 38.1025ZM33.0437 40.9111C32.9222 40.9445 32.7905 41.062 32.7217 40.9111C32.8227 40.8517 32.8929 40.6877 33.0437 40.7342C33.0437 40.7922 33.0437 40.8517 33.0437 40.9111Z" fill="#333631"/>
<path d="M34.7547 37.1914C34.6611 37.2901 34.5191 37.3713 34.4591 37.4801C34.4752 37.5512 34.5308 37.5048 34.5469 37.5759C34.5162 37.5991 34.4986 37.586 34.4752 37.5918C34.5337 37.7267 34.6333 37.8123 34.7152 37.911C34.7416 37.6702 34.7547 37.4293 34.7547 37.1914Z" fill="#333631"/>
<path d="M34.9963 49.9C34.7489 49.9537 34.6318 49.6215 34.4327 49.5344C34.4752 49.427 34.6157 49.4503 34.7211 49.3922C34.7328 49.3618 34.746 49.3342 34.7621 49.3095C34.5352 49.0499 34.1737 48.9715 33.7404 48.8772C33.6409 48.854 33.537 48.8322 33.4316 48.8061C32.7802 48.6465 31.8976 48.3187 31.3868 47.6615C31.2434 47.4743 31.0487 47.1842 30.8906 46.8113C30.8804 46.8142 30.8701 46.8171 30.8613 46.82C30.8643 46.791 30.8643 46.7635 30.8613 46.7388C30.8526 46.7156 30.8438 46.6924 30.835 46.6692C30.8321 46.6663 30.8291 46.6634 30.8262 46.6604C30.7442 46.659 30.6506 46.6677 30.5935 46.643C30.6345 46.5894 30.6125 46.4719 30.7003 46.466C30.7369 46.4994 30.7677 46.5545 30.8086 46.5981C30.6476 46.1396 30.5876 45.6754 30.6315 45.214C30.6403 45.1197 30.6637 45.0342 30.6916 44.9544C30.4354 45.0632 30.0505 45.1299 29.8704 44.9369C29.7665 44.8252 29.7358 44.6976 29.7548 44.5743C29.7372 44.5743 29.7182 44.5714 29.6977 44.567C29.6919 44.5249 29.6362 44.5336 29.6436 44.4785C29.5821 44.5409 29.506 44.48 29.5001 44.39C29.5631 44.4002 29.5923 44.3755 29.607 44.3363C29.6157 44.271 29.5279 44.2565 29.5718 44.2116C29.6845 44.2159 29.7182 44.1448 29.8221 44.1405C29.8397 44.1782 29.8631 44.242 29.8792 44.3073C30.0827 44.0549 30.4822 43.9098 30.7999 44.1376C30.8335 44.1942 30.8584 44.258 30.8745 44.3262C30.8745 44.3218 30.8745 44.3189 30.8745 44.3146C30.8701 44.2188 30.8233 44.1361 30.7691 44.0418C30.6959 43.9127 30.6067 43.7546 30.6228 43.5297C30.5964 43.5196 30.5671 43.5094 30.5379 43.5007C30.5598 43.4514 30.592 43.4151 30.6301 43.3832C30.4164 43.476 30.0973 43.4557 29.8499 43.4601C29.503 43.0872 29.6948 42.7318 29.9319 42.4373C29.3772 42.6085 28.8561 42.6781 28.3745 42.6781C28.1081 42.6781 27.8535 42.6564 27.6134 42.6201C27.6354 42.7361 27.7232 42.8522 27.8213 42.932C27.7554 42.9291 27.7086 42.8711 27.6617 42.813C27.6193 42.8348 27.5637 42.8508 27.5812 42.8928C27.4729 42.8566 27.388 42.7507 27.2695 42.7507C27.2563 42.681 27.2943 42.6273 27.2958 42.5635C26.8655 42.4707 26.4878 42.3314 26.1746 42.1849C25.9419 42.076 25.715 41.9513 25.4984 41.812C25.4047 41.9266 25.4106 42.0543 25.3506 42.1239C25.4106 42.1529 25.4779 42.1805 25.5072 42.2414C25.4384 42.3619 25.3462 42.314 25.2671 42.3502C25.1998 42.4025 25.3169 42.4663 25.2349 42.4808C25.1559 42.4765 25.15 42.4344 25.0666 42.3778C25.0812 42.4649 24.9612 42.6418 24.9334 42.784C24.9539 42.7971 24.9744 42.8101 24.9949 42.8232C25.0886 42.7521 25.191 42.7303 25.311 42.8508C25.2423 42.8421 25.194 42.8725 25.1544 42.9218C25.4867 43.1206 25.8394 43.2889 26.2097 43.4238C26.2332 43.3803 26.2581 43.3397 26.3078 43.3048C26.3064 43.3803 26.359 43.4412 26.4103 43.4934C26.4425 43.5036 26.4747 43.5138 26.5069 43.5239C26.6006 43.4093 26.7015 43.2149 26.8201 43.2091C26.8186 43.2497 26.6942 43.2787 26.7645 43.3759C26.6942 43.4267 26.6489 43.402 26.5801 43.447C26.5405 43.4673 26.5757 43.5109 26.5874 43.5486C26.6884 43.579 26.7923 43.6066 26.8962 43.6313C27.0967 43.6791 27.3075 43.6936 27.5315 43.7082C27.874 43.7299 28.2267 43.7531 28.5707 43.9055C28.7522 43.9867 28.9908 44.213 29.1078 44.3755C29.1108 44.3813 29.1152 44.3857 29.1181 44.3915C29.1722 44.3595 29.2308 44.332 29.285 44.3537C29.2835 44.4118 29.241 44.4698 29.1913 44.5003C29.4591 44.9253 29.6114 45.4259 29.7709 45.9539C29.8836 46.3253 29.9992 46.704 30.1588 47.0623C30.2481 47.0275 30.3022 46.9593 30.3593 46.8911C30.3622 46.852 30.2964 46.8824 30.27 46.8737C30.3198 46.7809 30.4252 46.7446 30.4852 46.6604C30.5657 46.6692 30.5584 46.7649 30.6111 46.8026C30.5174 46.91 30.45 47.0449 30.3242 47.1218C30.4369 47.3423 30.8262 46.9477 30.9331 47.2103C30.8482 47.38 30.5335 47.3234 30.4852 47.5295C30.8774 47.6658 31.0882 47.985 31.3092 48.2926C31.2404 48.3216 31.1497 48.3288 31.0619 48.339C31.2141 48.4957 31.3736 48.6422 31.539 48.7757C31.6503 48.7626 31.7615 48.767 31.8566 48.7931C31.8742 48.7873 31.8918 48.7829 31.9123 48.78C31.9284 48.796 31.9445 48.8134 31.9576 48.8337C32.0425 48.8801 32.1025 48.9541 32.1186 49.0629C32.0777 49.0774 32.0381 49.0876 31.9986 49.0905C31.9928 49.1006 31.984 49.1108 31.9737 49.1195C32.265 49.3342 32.5885 49.5242 32.9603 49.5692C33.07 49.5823 33.1813 49.5808 33.2808 49.5794C33.3101 49.5779 33.3394 49.5779 33.3686 49.5779C33.5267 49.5779 33.6599 49.591 33.7477 49.6824C33.8048 49.7433 33.8297 49.8275 33.8224 49.9348C33.8077 50.1263 33.6511 50.1843 33.5472 50.2235C33.4872 50.2467 33.4433 50.2641 33.414 50.2903C33.4857 50.3425 33.5355 50.4614 33.5911 50.5644C33.6131 50.4614 33.7668 50.402 33.7038 50.2714C33.837 50.2467 33.9322 50.3352 34.0727 50.2873C34.0478 50.196 34.0302 50.0958 33.9848 50.0335C34.0975 50.0088 34.2132 50.0291 34.241 49.9464C34.2922 50.0204 34.2878 50.077 34.3215 50.1452C34.484 50.1626 34.7196 49.9667 34.8104 50.2003C34.6333 50.2134 34.4225 50.3222 34.2659 50.2714C34.2176 50.4803 33.8414 50.5006 33.6658 50.6674C33.5662 50.5761 33.474 50.4585 33.3833 50.341C33.3262 50.4977 33.3467 50.6355 33.4418 50.7545C33.5384 50.8691 33.7067 50.9532 33.8926 50.9895C33.8531 50.8981 33.8356 50.8067 33.859 50.7313C34.0492 50.7037 34.1971 50.8053 34.3186 50.9852C34.5425 50.9271 34.7416 50.7617 34.8689 50.5238C34.9172 50.4324 34.9538 50.3352 34.9758 50.2366C34.9304 50.2134 34.8923 50.1814 34.8704 50.1278C34.907 50.1379 34.9465 50.1553 34.9889 50.1742C34.9992 50.0828 35.0021 49.9899 34.9963 49.9ZM26.5801 42.9305C26.5713 42.9044 26.5596 42.887 26.5449 42.874C26.5435 42.8943 26.5405 42.9131 26.5376 42.9305C26.542 42.9436 26.542 42.9552 26.5288 42.9625C26.52 42.9857 26.5083 43.006 26.4922 43.0205C26.422 43.0219 26.3766 42.903 26.4381 42.8783C26.422 42.8479 26.3825 42.8392 26.3312 42.8435C26.34 42.7449 26.3927 42.6926 26.4922 42.6839C26.5054 42.6999 26.5244 42.7115 26.5464 42.7187C26.5464 42.7216 26.5464 42.7245 26.5464 42.7274C26.5727 42.7245 26.5859 42.7594 26.6196 42.7303C26.6415 42.8101 26.6342 42.8769 26.5801 42.9305ZM26.9006 42.5737C26.9987 42.5374 27.1597 42.5911 27.1172 42.7245C27.0602 42.7216 27.0001 42.7303 26.9328 42.7565C26.8889 42.6839 26.9621 42.6506 26.9006 42.5737ZM27.2446 43.5718C27.1202 43.5906 27.0953 43.2526 26.9767 43.2526C27.0177 43.1815 27.088 43.138 27.1743 43.1104C27.2621 43.154 27.4349 43.5428 27.2446 43.5718ZM27.5007 43.0887C27.4729 43.0394 27.5139 43.0132 27.549 42.9857C27.568 43.0321 27.5549 43.0669 27.5007 43.0887ZM29.0625 43.5254C28.9966 43.5616 28.9732 43.476 28.9263 43.4543C28.9132 43.5326 28.8136 43.5355 28.7507 43.5413C28.7302 43.389 28.7712 43.257 28.8941 43.1525C28.96 43.1946 28.9864 43.3556 29.0859 43.2947C29.0859 43.3745 29.0742 43.4514 29.0625 43.5254Z" fill="#333631"/>
<path d="M24.2133 41.5811C24.4006 41.7334 24.5748 41.7871 24.7563 41.8988C24.8397 41.761 24.8324 41.6348 24.9305 41.4955C24.9671 41.4752 25.0081 41.4854 25.049 41.4883C24.9598 41.4172 24.8719 41.3446 24.787 41.2692C24.7622 41.2851 24.7373 41.2924 24.7095 41.2851C24.7095 41.2648 24.7212 41.2445 24.7344 41.2228C24.6992 41.1909 24.6656 41.1589 24.6304 41.1256C24.547 41.0458 24.4665 40.9631 24.3889 40.8789C24.2748 40.9312 24.1811 41.1198 24.0479 41.0342C24.1108 40.9689 24.206 40.8847 24.3011 40.7817C24.2074 40.6758 24.1181 40.5656 24.0332 40.4539C24.0303 40.464 24.0289 40.4742 24.0274 40.4843C23.9001 40.4553 23.7639 40.4466 23.6117 40.4916C23.5854 40.2406 23.3775 40.2522 23.2033 40.3175C23.196 40.3015 23.1872 40.2856 23.1799 40.2696C23.3117 40.1536 23.5444 40.0273 23.7332 40.007C23.6834 39.9243 23.6366 39.8416 23.5941 39.7589C23.0862 38.7782 22.7701 37.1171 23.2063 35.6127C23.36 35.0861 23.5898 34.5913 23.8913 34.1402C23.8064 34.072 23.7303 33.9588 23.7932 33.8776C23.8913 33.8703 23.9893 33.866 24.0859 33.8674C24.4109 33.4409 24.8031 33.0579 25.2554 32.73C25.996 32.1932 26.8977 31.8697 27.8652 31.7943C29.0171 31.7058 30.0505 31.9074 30.936 32.3963C31.4658 32.6894 31.9445 33.0855 32.3631 33.5773C32.3792 33.5541 32.3997 33.5366 32.426 33.5294C32.4377 33.5671 32.4187 33.5947 32.4011 33.6222C32.5621 33.8137 32.7129 34.0212 32.8549 34.2403C32.8593 34.2475 32.8637 34.2548 32.8681 34.2606C32.8695 34.249 32.8695 34.2359 32.8695 34.2214C32.9837 34.2954 33.1798 34.1518 33.275 34.2693C33.2193 34.3549 33.1301 34.4492 33.0086 34.4956C33.0818 34.6262 33.1505 34.7596 33.2135 34.8946C33.3291 34.9163 33.4433 34.941 33.5545 34.9729C33.4696 35.0382 33.4082 35.0396 33.3086 35.1136C33.3657 35.2529 33.4169 35.3922 33.4608 35.5329C33.5121 35.5924 33.6028 35.6083 33.635 35.5677C33.7067 35.5967 33.6394 35.6925 33.6672 35.7505C33.6423 35.7389 33.6043 35.72 33.5677 35.6954C33.5545 35.72 33.5413 35.7447 33.5296 35.7694C33.5472 35.8375 33.5633 35.9057 33.5779 35.9725C33.5779 35.9739 33.5779 35.9768 33.5794 35.9783C33.597 35.9913 33.6131 36.0058 33.6277 36.0261C33.616 36.0334 33.6043 36.0392 33.5926 36.045C33.6131 36.1466 33.6306 36.2481 33.6453 36.3482C33.7477 36.3395 33.8516 36.309 33.9483 36.2655C33.9717 36.3134 33.9336 36.3395 33.9483 36.3845C33.9907 36.4048 34.0653 36.325 34.1078 36.3453C34.14 36.4091 34.1722 36.473 34.2044 36.5354C34.1546 36.5397 34.0961 36.5644 34.0361 36.5992C33.9541 36.7036 34.0858 36.8661 34.2278 36.7414C34.2717 36.7834 34.3142 36.8299 34.3478 36.8995C34.3069 36.9387 34.3054 36.9909 34.2278 37.0185C34.3595 37.0896 34.4781 37.2013 34.6757 37.0736C34.6918 37.1171 34.7284 37.1041 34.7547 37.12C34.7518 36.972 34.7445 36.827 34.7299 36.6819C34.7182 36.5528 34.702 36.4237 34.683 36.296C34.6757 36.3061 34.6669 36.3163 34.6596 36.3279C34.6172 36.3003 34.6391 36.267 34.6742 36.2322C34.645 36.0392 34.6084 35.8492 34.5659 35.6635L34.5645 35.662C34.5074 35.6867 34.5381 35.7418 34.5001 35.7737C34.4371 35.8027 34.4049 35.7403 34.3478 35.7505C34.3186 35.8158 34.2512 35.868 34.2922 35.9565C34.0288 36.0726 33.8926 36.3714 33.7155 36.0436C33.9292 35.9884 33.856 35.7418 33.9805 35.6156C34.0639 35.7491 34.2029 35.7215 34.3405 35.6954C34.3991 35.6664 34.3874 35.6141 34.3478 35.5532C34.2922 35.5474 34.2395 35.5329 34.1634 35.5851C34.1458 35.4691 34.1459 35.3588 34.1795 35.2601C34.2732 35.3109 34.3595 35.2877 34.4518 35.2297C34.3859 35.0034 34.3083 34.7828 34.222 34.5696C33.9629 33.9327 33.6145 33.3538 33.1871 32.8461C32.6324 32.1874 31.9445 31.655 31.1585 31.2735C31.1555 31.2764 31.1526 31.2793 31.1511 31.2822C31.116 31.2764 31.0604 31.243 31.0136 31.2053C30.6389 31.0341 30.2422 30.8948 29.828 30.7918C27.8447 30.3 26.2068 30.9456 25.4076 31.3736C25.3593 31.3982 25.311 31.4229 25.2627 31.449C24.9363 31.6187 24.5675 31.8131 24.3245 32.0743C24.2938 32.1062 24.2616 32.1686 24.2308 32.2295C24.2118 32.2687 24.1884 32.3137 24.1606 32.3586C24.1972 32.3731 24.2323 32.3905 24.2674 32.4094C24.2294 32.5545 24.206 32.7155 24.3904 32.8649C24.3011 32.9404 24.2572 33.0695 24.3655 33.1406C24.2791 33.1652 24.2177 33.0579 24.1313 33.0855C24.0654 33.1623 24.0245 33.245 23.9718 33.3248C23.8005 33.3466 23.6088 33.4801 23.4302 33.5468C23.297 33.3887 23.4009 33.2276 23.5766 33.1652C23.6146 33.1174 23.5224 33.0448 23.5429 32.9941C23.6132 32.9854 23.6673 33.0666 23.7464 33.0042C23.7947 32.8765 23.5897 32.8765 23.5429 32.7764C23.5092 32.7039 23.5444 32.5588 23.6205 32.4355C23.5824 32.3876 23.5605 32.3282 23.5575 32.26C23.5532 32.1671 23.5824 32.0656 23.6102 31.9684C23.6322 31.8915 23.6542 31.8131 23.6571 31.7508C23.6864 30.8919 22.915 29.6849 22.3749 29.0625C22.2285 29.1568 22.0514 29.2119 21.8787 29.2642C21.4981 29.3802 21.261 29.4687 21.2347 29.7893C21.261 29.814 21.3254 29.8198 21.4103 29.8241C21.4557 29.827 21.504 29.8285 21.5479 29.8387C21.5845 29.8474 21.6152 29.872 21.6299 29.9054C21.7323 30.1375 21.845 30.3566 21.9533 30.5684C22.1612 30.9746 22.3588 31.3591 22.4773 31.8044C22.4949 31.8697 22.5096 31.9365 22.5227 32.0032C22.6662 32.0206 22.7774 32.215 22.8974 32.3572C22.8257 32.4616 22.6793 32.4079 22.5798 32.4863C22.6237 33.29 22.4364 34.1735 22.268 34.9758C22.1875 35.3559 22.1129 35.7142 22.0734 36.0174C21.9329 37.1113 21.9797 38.1268 22.2066 38.9567C22.2285 39.0379 22.2519 39.1177 22.2768 39.1975C22.2988 39.2091 22.3163 39.2294 22.3295 39.2671C22.3939 39.2048 22.4817 39.1786 22.5535 39.1961C22.533 39.3063 22.4393 39.3397 22.331 39.3643C22.451 39.7183 22.5959 40.0549 22.7628 40.3755C22.7935 40.3581 22.8257 40.3378 22.8579 40.316C23.0043 40.213 23.0687 39.9809 23.2429 40.007C23.0877 40.0825 22.9399 40.3276 22.8023 40.4481C23.0936 40.9877 23.4492 41.4752 23.8635 41.9017C23.9849 41.8031 24.1503 41.7537 24.2133 41.5811ZM34.6113 36.7907C34.6537 36.8574 34.6347 36.9039 34.5879 36.9416C34.5176 36.8952 34.5293 36.8241 34.6113 36.7907ZM34.4825 36.457C34.4825 36.518 34.3522 36.5731 34.3069 36.5441C34.3244 36.4831 34.4342 36.4802 34.4825 36.457ZM34.0273 34.9178C34.0156 34.9613 33.8897 35.0106 33.8516 35.0048C33.8429 34.9221 33.9717 34.9439 34.0273 34.9178ZM33.6906 35.0454C33.7507 35.1006 33.7785 35.2587 33.8033 35.3472C33.6482 35.3066 33.2267 35.3269 33.4506 35.0846C33.5311 35.0701 33.5911 35.1151 33.6584 35.1397C33.698 35.118 33.7097 35.0861 33.6906 35.0454ZM33.455 34.7292C33.4799 34.6436 33.5296 34.5768 33.6057 34.5275C33.5721 34.6073 33.5765 34.7147 33.455 34.7292ZM33.5633 34.2475C33.4726 34.3259 33.3672 34.3955 33.2911 34.4854C33.2208 34.3723 33.2925 34.2258 33.3291 34.1387C33.433 34.1793 33.5604 34.0647 33.5633 34.2475ZM32.8505 33.5366C32.8695 33.599 32.77 33.6092 32.7378 33.5918C32.7378 33.5337 32.811 33.5831 32.8505 33.5366ZM32.6529 33.6251C32.9046 33.5976 32.9808 33.8036 33.0408 34.0343C33.133 34.0299 33.133 33.9138 33.2149 33.9907C33.1827 34.0865 33.0378 34.0995 33.032 34.2156C32.8754 34.2141 32.9061 33.9632 32.8168 33.8703C32.7612 33.8863 32.7641 33.9458 32.7041 33.9588C32.6222 33.8993 32.6412 33.7136 32.6529 33.6251ZM32.3704 33.0216C32.3719 33.084 32.3543 33.1391 32.2665 33.1725C32.2313 33.0985 32.3148 33.0651 32.3704 33.0216ZM32.2577 33.2755C32.2606 33.3161 32.1523 33.3553 32.145 33.2915C32.1933 33.2581 32.2196 33.2828 32.2577 33.2755ZM29.4782 31.1052C29.506 31.0544 29.4694 30.9935 29.4694 30.9383C29.5557 30.979 29.6582 30.934 29.7343 31.037C29.5191 31.1472 29.7606 31.3387 29.7182 31.4809C29.5982 31.4708 29.6348 31.5549 29.5777 31.6216C29.3464 31.4896 29.2601 31.2735 29.4782 31.1052ZM22.1231 38.4141C22.0968 38.3619 22.11 38.3212 22.0675 38.2632C22.1012 38.2211 22.1363 38.1805 22.211 38.1515C22.2578 38.2647 22.2139 38.3474 22.1231 38.4141ZM23.0921 30.86C23.0131 31.0109 23.1477 31.2009 22.9926 31.3387C22.9018 31.3649 22.836 31.256 22.7437 31.2938C22.6867 31.1139 22.8857 30.9195 23.0921 30.86ZM22.5549 30.7773C22.511 30.7323 22.4612 30.7265 22.4188 30.6772C22.331 30.6815 22.4012 30.7483 22.3222 30.7875C22.2417 30.6975 22.3676 30.506 22.2007 30.3957C22.1407 30.432 22.1992 30.4886 22.1392 30.5249C22.0763 30.5916 22.0353 30.5336 21.9812 30.5481C21.9826 30.4465 22.1085 30.3667 22.0851 30.2608C22.2139 30.2797 22.268 30.3798 22.3954 30.3928C22.5139 30.4045 22.6603 30.3073 22.7628 30.4204C22.6149 30.5249 22.6413 30.6612 22.5549 30.7773ZM22.7335 32.0583C22.9999 31.8146 23.1477 32.231 23.3951 32.0989C23.3526 32.1758 23.3922 32.2687 23.3995 32.3543C23.3278 32.3514 23.2677 32.2774 23.1946 32.2788C23.136 32.302 23.1536 32.3398 23.1023 32.3644C23.0072 32.1483 22.7994 32.2048 22.7335 32.0583ZM22.5388 39.4383C22.6032 39.3252 22.7862 39.3701 22.8755 39.4311C22.8579 39.447 22.8638 39.4717 22.8433 39.4862C22.7628 39.4601 22.6676 39.4775 22.571 39.5022C22.5608 39.4804 22.5491 39.4601 22.5388 39.4383ZM22.795 39.8271C22.7276 39.8329 22.7145 39.9229 22.6662 39.891C22.5959 39.8329 22.6779 39.7227 22.7306 39.6603C22.8711 39.6937 22.9589 39.8823 23.0672 40.0099C22.9355 40.068 22.8916 39.8707 22.795 39.8271ZM23.78 41.0255C23.7288 40.9877 23.72 40.9399 23.8034 40.9138C23.8371 40.9645 23.8444 41.0066 23.78 41.0255Z" fill="#333631"/>
<path d="M25.1998 42.1425C25.2349 42.096 25.1998 42.0583 25.1574 42.022C24.9334 41.9785 24.7505 42.2208 24.5411 42.2716C24.4475 42.141 24.345 42.0119 24.3567 41.8668C24.2557 41.7885 24.1869 41.9321 24.102 41.9655C24.0903 42.0162 24.0976 42.0641 24.0845 42.1163C24.263 42.2846 24.4519 42.4413 24.648 42.5864C24.8105 42.5313 24.9905 42.4108 24.8163 42.2353C24.932 42.1192 25.0505 42.0177 25.1998 42.1425Z" fill="#333631"/>
</svg>
