<svg width="60" height="60" viewBox="0 0 60 60" fill="none" xmlns="http://www.w3.org/2000/svg">
<rect width="60" height="60" rx="10" fill="#C5B589"/>
<path d="M17.4126 42.5146H20.6499L20.6689 16.3496H17.4126V14.8643H31.771C34.7544 14.8643 36.9697 15.5498 38.417 16.9209C39.877 18.2793 40.6069 20.0312 40.6069 22.1768C40.6069 24.6777 39.4517 26.5249 37.1411 27.7183C36.4556 28.0737 35.7319 28.353 34.9702 28.5562C37.4204 28.8481 39.293 29.6353 40.5879 30.9175C41.8828 32.1997 42.5303 33.7739 42.5303 35.6401C42.5303 38.2046 41.5908 40.2422 39.7119 41.7529C37.8457 43.251 35.1733 44 31.6948 44H17.4126V42.5146ZM30.457 28.1562C33.2119 28.1562 34.856 26.9756 35.3892 24.6143C35.5542 23.9033 35.6367 23.1416 35.6367 22.3291C35.6367 20.3994 35.3257 19.0029 34.7036 18.1396C33.8657 16.9463 32.2788 16.3496 29.9429 16.3496H25.7915V28.1562H30.457ZM30.2095 42.5146C32.52 42.5146 34.2847 41.9624 35.5034 40.8579C36.7349 39.7534 37.3506 38.1855 37.3506 36.1543C37.3506 33.1709 36.1636 31.1777 33.7896 30.1748C32.9263 29.8066 31.8726 29.6226 30.6284 29.6226H25.7915V42.5146H30.2095Z" fill="#FDFDFD"/>
</svg>
