<svg width="50" height="50" viewBox="0 0 50 50" fill="none" xmlns="http://www.w3.org/2000/svg">
<path d="M38.7281 0H11.2719C5.04659 0 0 5.04659 0 11.2719V38.7281C0 44.9534 5.04659 50 11.2719 50H38.7281C44.9534 50 50 44.9534 50 38.7281V11.2719C50 5.04659 44.9534 0 38.7281 0Z" fill="#06C755"/>
<path d="M41.6656 22.6434C41.6656 15.184 34.1875 9.11523 24.9953 9.11523C15.8031 9.11523 8.32495 15.184 8.32495 22.6434C8.32495 29.3309 14.2562 34.9309 22.2671 35.9902C22.8093 36.1074 23.5484 36.348 23.7359 36.8121C23.9046 37.234 23.8453 37.8934 23.7906 38.3199C23.7906 38.3199 23.5953 39.4965 23.5531 39.7465C23.4796 40.1684 23.2187 41.3949 24.9968 40.6449C26.7765 39.8949 34.5968 34.9918 38.0937 30.9668C40.5093 28.3168 41.6671 25.6293 41.6671 22.6434H41.6656Z" fill="#FDFDFD"/>
<path d="M36.1187 26.9516H31.4359C31.2593 26.9516 31.1171 26.8094 31.1171 26.6328V26.6281V19.3656V19.3578C31.1171 19.1813 31.2593 19.0391 31.4359 19.0391H36.1187C36.2937 19.0391 36.4374 19.1828 36.4374 19.3578V20.5406C36.4374 20.7172 36.2953 20.8594 36.1187 20.8594H32.9359V22.0875H36.1187C36.2937 22.0875 36.4374 22.2312 36.4374 22.4062V23.5891C36.4374 23.7656 36.2953 23.9078 36.1187 23.9078H32.9359V25.1359H36.1187C36.2937 25.1359 36.4374 25.2797 36.4374 25.4547V26.6375C36.4374 26.8141 36.2953 26.9563 36.1187 26.9563V26.9516Z" fill="#06C755"/>
<path d="M18.7952 26.9512C18.9702 26.9512 19.114 26.809 19.114 26.6324V25.4496C19.114 25.2746 18.9702 25.1309 18.7952 25.1309H15.6124V19.3559C15.6124 19.1809 15.4687 19.0371 15.2937 19.0371H14.1109C13.9343 19.0371 13.7921 19.1793 13.7921 19.3559V26.6262V26.6324C13.7921 26.809 13.9343 26.9512 14.1109 26.9512H18.7937H18.7952Z" fill="#06C755"/>
<path d="M21.614 19.0391H20.4328C20.2567 19.0391 20.114 19.1818 20.114 19.3578V26.6328C20.114 26.8089 20.2567 26.9516 20.4328 26.9516H21.614C21.7901 26.9516 21.9328 26.8089 21.9328 26.6328V19.3578C21.9328 19.1818 21.7901 19.0391 21.614 19.0391Z" fill="#06C755"/>
<path d="M29.6624 19.0391H28.4796C28.3031 19.0391 28.1609 19.1813 28.1609 19.3578V23.6781L24.8328 19.1828C24.8249 19.1719 24.8156 19.1609 24.8078 19.15C24.8078 19.15 24.8078 19.15 24.8062 19.1484C24.7999 19.1422 24.7937 19.1344 24.7874 19.1281C24.7859 19.1266 24.7828 19.125 24.7812 19.1234C24.7749 19.1188 24.7703 19.1141 24.764 19.1094C24.7609 19.1078 24.7578 19.1047 24.7546 19.1031C24.7499 19.0984 24.7437 19.0953 24.7374 19.0922C24.7343 19.0906 24.7312 19.0875 24.7281 19.0859C24.7218 19.0828 24.7171 19.0797 24.7109 19.0766C24.7078 19.075 24.7046 19.0734 24.7015 19.0719C24.6953 19.0687 24.689 19.0656 24.6828 19.0641C24.6796 19.0641 24.6765 19.0609 24.6718 19.0609C24.6656 19.0594 24.6593 19.0562 24.6531 19.0547C24.6499 19.0547 24.6453 19.0531 24.6421 19.0516C24.6359 19.0516 24.6296 19.0484 24.6234 19.0469C24.6187 19.0469 24.614 19.0469 24.6093 19.0453C24.6031 19.0453 24.5984 19.0437 24.5921 19.0437C24.5859 19.0437 24.5812 19.0437 24.5749 19.0437C24.5718 19.0437 24.5671 19.0437 24.564 19.0437H23.389C23.214 19.0437 23.0703 19.1859 23.0703 19.3625V26.6375C23.0703 26.8125 23.2124 26.9563 23.389 26.9563H24.5718C24.7484 26.9563 24.8906 26.8141 24.8906 26.6375V22.3172L28.2234 26.8188C28.2468 26.8516 28.2749 26.8781 28.3062 26.8984C28.3062 26.8984 28.3093 26.9 28.3093 26.9016C28.3156 26.9062 28.3218 26.9094 28.3296 26.9141C28.3328 26.9156 28.3359 26.9172 28.339 26.9187C28.3437 26.9219 28.3499 26.9234 28.3546 26.9266C28.3593 26.9297 28.3656 26.9312 28.3703 26.9328C28.3734 26.9328 28.3765 26.9359 28.3796 26.9359C28.3874 26.9391 28.3937 26.9406 28.4015 26.9422C28.4015 26.9422 28.4046 26.9422 28.4062 26.9422C28.4328 26.9484 28.4609 26.9531 28.489 26.9531H29.664C29.839 26.9531 29.9828 26.8109 29.9828 26.6344V19.3594C29.9828 19.1844 29.8406 19.0406 29.664 19.0406L29.6624 19.0391Z" fill="#06C755"/>
</svg>
