<svg width="100" height="58" viewBox="0 0 100 58" fill="none" xmlns="http://www.w3.org/2000/svg">
<path d="M40.3969 51.1664C39.5114 50.7319 37.1115 49.4308 33.1898 47.32C30.0956 45.6586 26.7852 43.5206 23.2583 40.8074C22.6697 40.3556 22.3376 39.6471 22.3729 38.9139C22.3729 38.9065 22.3729 38.8966 22.3729 38.8892C22.4081 38.156 22.8131 37.4869 23.447 37.0944C26.6418 35.1219 29.7963 32.8432 32.9986 30.2609C37.2977 26.7231 40.9629 22.8768 43.9966 18.7218C46.9675 14.5669 48.4215 10.4095 48.2957 6.12868C47.5385 2.5934 45.0733 0.546797 40.9 0.112294C36.6638 -0.322208 32.1785 0.534453 26.4229 2.1589C22.6496 3.22541 8.11465 8.474 1.32263 11.5205C0.0547913 12.0883 -0.380401 13.614 0.364205 14.7694C0.713869 15.3125 1.04844 15.868 1.36791 16.4432C1.58677 16.3963 1.78047 16.3247 2.0119 16.2901C5.46325 15.7692 22.0081 7.21987 26.433 5.61024C30.795 3.99566 35.5871 2.28481 38.7492 2.65759C41.9087 3.09209 43.6168 4.95108 43.8054 8.23947C43.6168 12.0241 42.037 15.4976 39.129 18.7243C36.1581 21.951 32.6187 25.1777 28.4454 28.4636C28.0002 28.8018 27.5348 29.1474 27.0518 29.5005C25.4343 30.683 23.1602 29.3622 23.4042 27.3971C23.6608 25.3307 23.925 23.3952 24.2092 21.5782C24.2646 21.1758 24.3199 20.7882 24.3727 20.4105C24.6897 18.1639 22.9112 16.1642 20.6019 16.1642C20.5617 16.4555 20.5214 16.737 20.4786 17.048C19.9101 21.2054 19.4674 25.98 19.0246 31.3792C18.9643 31.9668 18.919 32.542 18.8737 33.1024C18.7781 34.2775 17.7794 35.1786 16.577 35.1688C14.6903 35.154 12.2402 34.9466 11.8679 35.312C10.6679 36.4278 15.357 38.8843 16.494 40.0001C16.8487 40.3482 17.2537 40.6988 17.6763 41.0617C18.1719 41.4863 18.4511 42.1035 18.4561 42.7503C18.4612 43.5255 18.4737 44.2909 18.5165 45.0265C18.6423 47.8187 18.8335 49.8653 19.085 51.1664C19.3366 52.4699 19.7164 53.6475 20.1592 54.7041C20.2598 54.9436 21.4169 57.7654 21.5176 57.9728C22.4508 58.2295 22.5766 56.5779 23.5074 56.9309C23.3816 56.2545 22.9414 54.7708 22.6873 53.5858C22.1188 51.2923 21.9276 48.6235 21.9905 45.6462L22.1163 44.2193C23.2533 44.9624 24.7073 45.8931 26.4783 46.9497C28.2492 48.0039 30.2717 48.9963 32.4829 49.9888C34.6966 51.0429 37.1946 52.855 38.9026 53.4129C40.6107 53.9709 41.0182 52.9661 41.3326 52.5316C41.5867 52.0971 41.2698 51.6626 40.3843 51.1664H40.3969Z" fill="#333631"/>
<path d="M68.068 34.2209C66.8027 36.2058 63.452 41.1705 62.8834 41.6642C62.3778 42.2222 61.8093 42.2839 62.252 37.8179C62.3778 36.5169 62.7577 34.5295 63.0721 33.2285C63.3891 31.9867 61.0496 32.3595 60.7955 32.794C60.0383 34.0358 55.6764 43.2788 55.5481 42.4098C55.1682 39.4942 56.6222 34.532 56.1166 33.7864C55.6109 33.1667 53.9683 31.9891 53.5255 32.1743C53.1809 32.2879 52.8463 33.2581 52.6023 34.5764C51.2037 36.739 48.185 41.1976 47.6467 41.6667C47.1411 42.2246 46.5725 42.2864 47.0153 37.8204C47.1411 36.5193 47.5209 34.532 47.8353 33.2309C48.1523 31.9891 45.8128 32.3619 45.5588 32.7964C44.8016 34.0382 40.4396 43.2813 40.3113 42.4123C39.9314 39.4967 41.3854 34.5344 40.8798 33.7889C40.3742 33.1692 38.7315 31.9916 38.2888 32.1768C37.3404 32.4878 36.4549 39.309 37.4033 41.9778C37.846 43.4047 38.0976 43.7158 38.9831 44.1478C40.6257 44.9551 41.3854 43.7133 43.1564 39.867L44.6733 36.5786L44.5475 38.44C44.296 41.605 45.116 42.8443 45.6845 43.2788C46.8845 44.2095 47.7699 43.3405 48.7812 41.9136C49.1912 41.289 50.9119 38.8597 52.3156 36.7391C52.152 38.6746 52.2024 40.7582 52.635 41.9753C53.0778 43.4022 53.3293 43.7133 54.2148 44.1453C55.8575 44.9526 56.6172 43.7108 58.3881 39.8645L59.905 36.5761L59.7792 38.4376C59.5277 41.6025 60.3477 42.8418 60.9163 43.2763C62.1162 44.2071 63.0017 43.3381 64.0129 41.9111C64.5814 41.0421 67.6781 36.702 68.9434 34.5295C69.3233 33.8481 68.312 33.8481 68.0579 34.2184L68.068 34.2209Z" fill="#333631"/>
<path d="M99.729 50.5243C99.2887 49.4627 98.4636 47.974 96.8839 47.2803C95.2286 46.5545 93.9885 47.2458 91.9182 46.789C91.9056 46.7866 91.8905 46.7816 91.8779 46.7792L91.1585 43.039C90.9698 42.5995 90.8163 42.244 90.7233 42.0268C90.5094 41.3503 89.9233 40.0271 88.1624 38.9087C86.5424 37.8793 83.7476 37.4571 80.9478 37.4793C80.9453 37.23 80.9201 36.9831 80.8748 36.7412L81.8735 33.08L78.8724 33.87C78.4976 33.6429 78.0826 33.4651 77.6323 33.354C77.1996 33.2454 76.7644 33.2084 76.3418 33.2281L73.8338 31.2827L73.3382 34.5983C72.8477 35.1142 72.4804 35.7512 72.2917 36.4844C71.7157 38.7236 73.0389 40.9899 75.2626 41.6614C75.4991 42.5502 76.1984 43.4414 77.5266 44.0907C78.7467 44.6856 78.2838 45.7176 77.9744 46.4508C77.177 46.4952 76.5657 46.7174 76.5657 46.989C76.5657 47.2902 77.3229 47.5346 78.2586 47.5346C78.392 47.5346 78.5203 47.5297 78.6435 47.5198C78.9127 47.6778 79.2196 47.8407 79.5667 48.0037C79.2045 48.2382 79.0007 48.5147 79.0737 48.727C79.1869 49.0504 79.8862 49.1097 80.6384 48.8603C80.8447 48.7912 81.0308 48.7048 81.1943 48.611C81.2975 48.6406 81.3956 48.6727 81.5012 48.7023C85.34 49.7244 88.7485 48.7073 89.3598 48.5147C91.7622 47.3643 92.0968 48.0975 92.0465 47.6877C93.5004 47.8728 94.3255 47.5864 95.5557 47.9963C97.3769 48.6011 98.4687 50.2009 99.1328 51.6229C99.402 51.7636 99.7541 51.6327 99.9176 51.3316C100.081 51.0304 99.9931 50.6699 99.7265 50.5292L99.729 50.5243Z" fill="#333631"/>
</svg>
