<svg width="40" height="68" viewBox="0 0 40 68" fill="none" xmlns="http://www.w3.org/2000/svg">
<path d="M27 0C30.866 0 34 3.13401 34 7V38C34 41.866 30.866 45 27 45V0Z" fill="#333631"/>
<rect width="2" height="22" rx="1" transform="matrix(4.37114e-08 1 1 -4.37114e-08 6 0)" fill="#333631"/>
<rect width="2" height="22" rx="1" transform="matrix(4.37114e-08 1 1 -4.37114e-08 10 11)" fill="#333631"/>
<rect width="2" height="20" rx="1" transform="matrix(4.37114e-08 1 1 -4.37114e-08 12 22)" fill="#333631"/>
<rect width="2" height="16" rx="1" transform="matrix(4.37114e-08 1 1 -4.37114e-08 16 33)" fill="#333631"/>
<rect width="2" height="16" rx="1" transform="matrix(4.37114e-08 1 1 -4.37114e-08 12 43)" fill="#333631"/>
<path d="M1.072 63V55.32H2.368L2.448 56.376C2.61867 56.0133 2.88533 55.7147 3.248 55.48C3.62133 55.2453 4.048 55.128 4.528 55.128C5.08267 55.128 5.552 55.256 5.936 55.512C6.32 55.768 6.59733 56.1307 6.768 56.6C6.96 56.1733 7.248 55.8213 7.632 55.544C8.02667 55.2667 8.50133 55.128 9.056 55.128C9.83467 55.128 10.4533 55.384 10.912 55.896C11.3707 56.408 11.6 57.1547 11.6 58.136V63H10.144V58.424C10.144 57.752 10.016 57.256 9.76 56.936C9.51467 56.6053 9.17333 56.44 8.736 56.44C8.21333 56.44 7.79733 56.632 7.488 57.016C7.18933 57.4 7.04 57.8907 7.04 58.488V63H5.616V58.424C5.616 57.752 5.488 57.256 5.232 56.936C4.976 56.6053 4.62933 56.44 4.192 56.44C3.66933 56.44 3.25867 56.6373 2.96 57.032C2.66133 57.416 2.512 57.896 2.512 58.472V63H1.072ZM17.4879 63.176C16.7625 63.176 16.1225 63.0213 15.5679 62.712C15.0132 62.4027 14.5812 61.9493 14.2719 61.352C13.9625 60.744 13.8079 60.0133 13.8079 59.16C13.8079 58.3387 13.9625 57.6293 14.2719 57.032C14.5812 56.424 15.0025 55.9547 15.5359 55.624C16.0799 55.2933 16.7039 55.128 17.4079 55.128C18.1119 55.128 18.7092 55.304 19.1999 55.656C19.7012 55.9973 20.0799 56.456 20.3359 57.032C20.6025 57.608 20.7359 58.2373 20.7359 58.92V59.304H15.2159C15.2372 60.1573 15.4505 60.808 15.8559 61.256C16.2719 61.6933 16.8212 61.912 17.5039 61.912C18.0479 61.912 18.4959 61.7787 18.8479 61.512C19.2105 61.2453 19.5145 60.8453 19.7599 60.312L20.8479 61.032C20.4852 61.7787 20.0212 62.3227 19.4559 62.664C18.9012 63.0053 18.2452 63.176 17.4879 63.176ZM15.2959 58.152H19.3279C19.2425 57.5973 19.0292 57.1493 18.6879 56.808C18.3465 56.4667 17.9145 56.296 17.3919 56.296C16.8372 56.296 16.3785 56.456 16.0159 56.776C15.6532 57.0853 15.4132 57.544 15.2959 58.152ZM23.0632 63V55.32H24.3592L24.4392 56.312C24.6632 55.992 24.9619 55.7147 25.3352 55.48C25.7192 55.2453 26.1566 55.128 26.6472 55.128C27.4579 55.128 28.1139 55.3893 28.6152 55.912C29.1272 56.424 29.3832 57.1707 29.3832 58.152V63H27.9592V58.456C27.9592 57.784 27.8099 57.2827 27.5112 56.952C27.2126 56.6107 26.8232 56.44 26.3432 56.44C25.7992 56.44 25.3566 56.6213 25.0152 56.984C24.6739 57.336 24.5032 57.8107 24.5032 58.408V63H23.0632ZM34.6196 63.176C33.809 63.176 33.153 62.92 32.6516 62.408C32.1503 61.8853 31.8996 61.1333 31.8996 60.152V55.32H33.3236V59.864C33.3236 60.5253 33.473 61.0267 33.7716 61.368C34.0703 61.6987 34.4543 61.864 34.9236 61.864C35.4676 61.864 35.9103 61.688 36.2516 61.336C36.6036 60.9733 36.7796 60.488 36.7796 59.88V55.32H38.2036V63H36.9076L36.8436 62.008C36.6196 62.328 36.3156 62.6053 35.9316 62.84C35.5583 63.064 35.121 63.176 34.6196 63.176Z" fill="#333631"/>
</svg>
