<svg width="28" height="20" viewBox="0 0 28 20" fill="none" xmlns="http://www.w3.org/2000/svg">
<path d="M27.7274 18.8673C27.2847 17.8264 26.4549 16.3667 24.8663 15.6864C23.2017 14.9747 21.9545 15.6525 19.8726 15.2047C19.8599 15.2023 19.8447 15.1974 19.8321 15.195L19.1086 11.5276C18.9188 11.0967 18.7645 10.7481 18.6709 10.5351C18.4559 9.8718 17.8665 8.57428 16.0956 7.47768C14.4665 6.46823 11.656 6.05428 8.84035 6.07607C8.83782 5.83157 8.81253 5.5895 8.76699 5.35227L9.7713 1.7623L6.75331 2.53694C6.37638 2.31423 5.95898 2.13994 5.50615 2.031C5.07104 1.92449 4.63339 1.88818 4.2084 1.90755L1.68625 0L1.18789 3.25106C0.694587 3.75699 0.325245 4.38155 0.135514 5.10051C-0.443796 7.29612 0.886854 9.51836 3.12314 10.1768C3.36094 11.0483 4.06421 11.9222 5.39991 12.5588C6.62683 13.1422 6.16136 14.1541 5.8502 14.8731C5.04828 14.9166 4.43355 15.1345 4.43355 15.4008C4.43355 15.6961 5.19499 15.9358 6.13606 15.9358C6.27013 15.9358 6.39915 15.9309 6.52311 15.9212C6.79379 16.0762 7.10242 16.2359 7.45153 16.3957C7.08724 16.6257 6.88234 16.8968 6.9557 17.105C7.06954 17.4221 7.7728 17.4802 8.5292 17.2357C8.73664 17.1679 8.92383 17.0832 9.08827 16.9912C9.19199 17.0203 9.29065 17.0517 9.3969 17.0808C13.2573 18.083 16.6851 17.0856 17.2998 16.8968C19.7157 15.7687 20.0522 16.4877 20.0016 16.0858C21.4638 16.2674 22.2935 15.9866 23.5306 16.3884C25.3621 16.9815 26.46 18.5502 27.1278 19.9445C27.3985 20.0825 27.7527 19.9542 27.9171 19.6589C28.0816 19.3635 27.993 19.0101 27.7249 18.8721L27.7274 18.8673Z" fill="#333631"/>
</svg>
