<?xml version="1.0" encoding="UTF-8"?>
<svg id="Layer_1" data-name="Layer 1" xmlns="http://www.w3.org/2000/svg" viewBox="0 0 1981.3 3515.4">
  <defs>
    <style>
      .cls-1 {
        fill: none;
      }
    </style>
  </defs>
  <path class="cls-1" d="M1406.93,560.04c-13.7-.2-17.1,9.8-17.1,23.2,7-1.2,10.3-6,15.9-8.6-1-6.2,1.7-8.8,1.2-14.6h0Z"/>
  <path class="cls-1" d="M1581.23,548.94c-3.6-3.4-10.2,3.9-11.2-.8,1.5-7.6,5.8-21.2-2.8-26.8-5.8,1.8-9.6,5.1-15,7.2-.9,18.6,17.5,32.8,29,20.4h0Z"/>
  <path class="cls-1" d="M1937.13,941.74c2.2,3.2-1.5,4.4-.5,7.1,4.2-2.2,7.6-4.8,6.6-8.7-2.5,1.7-3.5-.9-6.1,1.6h0Z"/>
  <path class="cls-1" d="M1511.03,1405.44c13.5-6.9,6.6-17.6-.2-28.2-5.9,1.9-10.9-1.2-16.6-.4,1.3,8.4,6.9,24.2,16.8,28.6h0Z"/>
  <path class="cls-1" d="M436.63,2878.74c-.7-5.8-2-11-8.6-11-.7,7.3,1.5,11.6,8.6,11Z"/>
  <path class="cls-1" d="M1833.73,1161.54c.3-4.5,2.3-8.3,4.9-12-7.6-2.3-9.8,13.2-4.9,12Z"/>
  <path class="cls-1" d="M1650.33,539.84c-1.4,2.6-5.5,3.1-7.9,4.9,8.5,13.6,24.6-2.5,27.9-11.6-5.2-2.6-8.9-7.3-9.8-15.9-9.2-3.7-20.7,3-28.3,9.2,6.5,3.9,13.9,6.5,18.1,13.4h0Z"/>
  <path class="cls-1" d="M1573.43,512.94c4.4-.1,3.7,6.6,8.3,6.2,1.2-8.7-4.7-11.9-6.7-20-8.2,2.5-14.8,6.3-20.7,10.5-.6,13,13.4,6.1,19.1,3.3h0Z"/>
  <path class="cls-1" d="M1784.63,146.44c.1-11.7-24.1-11.8-26.3-2.3,8.6-4.1,16,3.9,26.3,2.3Z"/>
  <path class="cls-1" d="M1651.03,379.14c-.1-4-1.6-6.6-4.9-7.3.1,3.9,1.6,6.5,4.9,7.3Z"/>
  <path class="cls-1" d="M1862.13,1130.14c-1.8,0-1.5-2.8-1.9-4.7-4.4.7-8.9,1.3-13.3,2,1.1,8,11.6,9.5,15.2,2.7Z"/>
  <path class="cls-1" d="M1143.23,1185.44c2-2.2,9.2-4.3,16-6.5,5.8,1.2,11.4,2.6,15.8-1.7,6.6-6.3.8-17.8-5.3-29.1-4.9-.5-8.9.7-12.2,2.9-7.6,1-15.5,4.4-19.5,7.9,3.6,7.6-1.8,20,5.2,26.5h0Z"/>
  <path class="cls-1" d="M368.23,3385.04c2.1,2.8,2.9,6.9,4.9,9.8h11c-2.2-5.4-11.8-14.4-15.9-9.8Z"/>
  <path class="cls-1" d="M1115.83,1130.54c-5.9,4.9-1,5.6.2,8.8-1.4,3-4.5,5.6-5.9,8.6,6.7,4.9,14.5,3.9,21.8,5.7-.9-8.7-10-16-16.1-23.1Z"/>
  <path class="cls-1" d="M399.93,3043.84c9.9-6.4,9.4-26-6.1-25.7-5,9.6-4.5,14.8-1.2,25.7-2.9,4.3-10-.4-11,3.7,3.2,5.3,4.9,12.2,7.3,18.3,8.6-.4,13.6-4.3,20.8-6.1,0-8.6-7.3-9.8-9.8-15.9h0Z"/>
  <path class="cls-1" d="M393.83,3152.64c3.2-1.2,7-2,7.3-6.1h-8.6c-.9,3.5,1.8,3.2,1.3,6.1h0Z"/>
  <path class="cls-1" d="M1423.53,1347.64c-.6,4.7.5,7.6,3.7,8.6,6.2-4.4,1.3-19.9,8.6-23.2-8.1-3.9-11,5.4-22,2.4,2,9.3-10.1,4.6-12.2,9.8-1.1,6.8,2.3,9.1,2.4,14.7,7.6-3,10.1-11.1,19.5-12.3Z"/>
  <path class="cls-1" d="M1416.33,1384.84c4.1.1,7.2,5.7,11.6,3.8-3.7-3.9-.2-6.5-2.6-10.1-7.7,4.4-17.8-.7-20.2-9.8-6.2,5-10.2-2-15.9.7-.6,8.1,10.8,17.1,16.1,23.1,3.6-2.5,7.3-5.1,11-7.7h0Z"/>
  <path class="cls-1" d="M1432.23,1364.84c-4.8,2.1.9,6,.2,8.8,2.5-.9,5.2.6,5.7-2.5-2-2.1-4.2-2.6-5.9-6.3Z"/>
  <path class="cls-1" d="M1089.23,892.84c-2.8.8-5.3-3.4-6.6.5,1.3,4.2,5.2.8,6.6,4.9-2.8,3.3-4.8,6.9-5.5,10.9,5.5-6.9,10.1-11.6,21.3-14.8-.4-10.5.9-25.2-6.6-35-5.9,10.3-7.7,21.8-9.2,33.5h0Z"/>
  <path class="cls-1" d="M1091.53,947.84c3.3,12.6-10.5,22.1,1.4,36.3,14.5-9,10-25.5-1.4-36.3Z"/>
  <path class="cls-1" d="M1535.03,1364.64c1.7,1,3.5,1.4,5.1,1.2-.1-.8-.1-1.5-.1-2.1,2.7-.8,5-1.9,6.4-3.5-.6-1.6-1.2-3.3-1.8-5,9.4-7.7,29.9-9.4,32.2-22.3-5.2-2-11.8,3.9-17.9,6.5-3-1.4-6.3-.5-8.6-5.9-5.2,5.1-3.6,11.5-7.9,16.8-2.2-4.2-5.5-7.9-11.3-10-.3,2.1-1,4-1.9,5.7-.1-.2-.3-.4-.4-.6-1.7,1.3-2.4,3.1-2.5,5.1-3.2,4.2-6.8,8-7.7,13.9,3.9.5,10.4,1,16.4.2h0Z"/>
  <path class="cls-1" d="M1883.43,913.54c5.4,3.4,11.7-1.4,17.1,1.2,2,3.3.2,10.4,6.1,9.8,6.5-13.7-21.5-34.3-23.2-11Z"/>
  <path class="cls-1" d="M1912.43,1048.34c-.5-2.9-1.8-6.1-1.6-8.8-2.4,2.5-3.4,5.5-3.8,8.7,2.2-1,2.9,2.4,5.4.1Z"/>
  <path class="cls-1" d="M1797.33,645.04c.6,8.6,2.5,19.7,8.4,24.9-1.2.2-2.4.4-3.7.5-5.7,10.7,6.3,13.4,13.4,15.3,3-6.8-5.1-8.1-5.5-13.5.4.1.8.2,1.3.3,18.4-7,7-44-13.9-27.5Z"/>
  <path class="cls-1" d="M1901.73,854.84c0-7.2,1.4-8.2,1.2-17.1-2.6-2.2-14.5-6.9-17.1-1.2,6,5.3,5.4,17.4,15.9,18.3Z"/>
  <path class="cls-1" d="M1886.83,950.44c2.2-3.8,3.3-8,0-13.7-5.5-.9-7.7,5.5-12.6,7.7,7.4,7.8,15.4,14,24.6,16.4,3.5-9.4-5.4-10.1-12-10.4Z"/>
  <path class="cls-1" d="M740.63,2340.44c-.6-2.8,6.6,2.8,7.3-1.2-1.6-1.2-11.6-2.5-7.3,1.2Z"/>
  <path class="cls-1" d="M623.23,2334.34c7.2.7,12.4-.6,12.2-7.3-6.1-3.1-12,.7-12.2,7.3Z"/>
  <path class="cls-1" d="M600.03,2538.54c3.9,1,3.8-1.9,6.1-2.4-1.3-5.3-2.8-10.2-6.1-13.5,1.4,5.2,1.4,10.7,0,15.9Z"/>
  <path class="cls-1" d="M630.53,2348.94c-.3,2.8.3,4.6,2.4,4.9,1.2-1.6,1.2-4.5,2.4-6.1-2.2-.3-2.6,1.4-4.8,1.2Z"/>
  <path class="cls-1" d="M659.93,2308.64c-2.8,11.9-9.5,19.9-20.8,23.2,4.2,3.9-1.7,8-1.2,12.2,10.9,7.8,26-2.6,30.6-12.2-8.1.3-9.7-5.8-11-12.2,8-.6,13.1,1.6,14.7,7.3,5.6-2.9,10.1-7,13.5-12.2-5.9-9.6-15.1-12.8-25.8-6.1h0Z"/>
  <path class="cls-1" d="M469.73,2822.54c-.2,6.3.8,13.8-1.2,18.3,1.6,1.7,6.9,1.7,8.6,0-4.1-4.6.5-17.7-7.4-18.3Z"/>
  <path class="cls-1" d="M679.43,2199.74c-.4,7.6,13.9,8.4,12.2-1.2-3.3-2.7-9.7-.7-12.2,1.2Z"/>
  <path class="cls-1" d="M426.93,2922.74c5.9.6,14.8,3.4,17.1-2.4-5.6,1-15.4-2.4-17.1,2.4Z"/>
  <path class="cls-1" d="M499.03,3156.34c-3.6,3.8-7.6,7.1-9.8,12.2,2.7,1,4.8,2.6,8.6,2.4,3.9-2.9,7.5-11.4,1.2-14.6h0Z"/>
  <path class="cls-1" d="M411.03,3087.84c4.2-2.1,9,2.8,9.8-3.7-5-.4-9,.1-9.8,3.7Z"/>
  <path class="cls-1" d="M738.13,2350.24c.2,6.3,2.5,10.5,7.3,12.2,1.8-6,2.4-5.7,2.4-13.5-3.4.2-7.9-.6-9.7,1.3h0Z"/>
  <path class="cls-1" d="M714.93,2353.84c3.7,1.2,3.8,5.9,8.6,6.1.9-5-7.2-7.4-8.6-6.1Z"/>
  <path class="cls-1" d="M710.03,2286.64c1,16.9-13.6,24.8-9.8,40.4,11.3-5.9,23-28.2,9.8-40.4Z"/>
  <path d="M1705.63,203.74c4.1-7.9,5.4-17.9,11.9-24.1,0-.6.5-.9,1.2-1,.1-.1.3-.2.4-.4.1.1.1.2.2.3,1.1-.2,2.2-.3,1.8-1.6-4.8-3.5-8.1,3.3-11.7,4.2-.4-5,3.2-7,3.2-11.6-.1-2.1-1.3-2.9-2.7-3.2-12.8,11.4-24.5,23.4-35.2,36.3,10.7-.3,22.1-1.4,30.9,1.1h0Z"/>
  <path d="M1483.33,577.04c2.9-.2,5.7-.3,8.6-.4-2.3-1.3-5-2.1-7.2-3.5-2.4.8-2.1,2.3-1.4,3.9Z"/>
  <path d="M1896.63,1152.94c.6-1.2,1.2-2.5,1.8-3.7-.8.7-1.8,1.4-2.9,2,.4.5.7,1.1,1.1,1.7Z"/>
  <path d="M1335.83,532.74c-.5.2-1,.5-1.6.7.4.1.7.2,1.2.2,0-.3.2-.6.4-.9h0Z"/>
  <path d="M1869.93,986.44c-2.4,35.6-9.1,69.3-20,100.7,4.1-4.5,7.8-10.9,12.2-13.6,2.9-2.4-2.2-1.8-2.2-4.4,10.3-2.5,21.8-8.9,32.3-12,5.7,16.5-9.8,25.9-11.5,39.9,6.7,4.5,14.9,4.6,18.6,18.1,5.6-2.9,11.3-2.1,15.3-4.9-2.5-8.8-11.2.8-14.8-4.9,4.7-3.7,11.1-2.7,16.6.7,8.6-23.9,15.1-48.5,19.8-74.2-25-6.4-47.4-20.6-66.3-45.4h0ZM1910.83,1039.64c-.2,2.7,1.2,5.9,1.6,8.8-2.6,2.3-3.3-1.1-5.5,0,.5-3.3,1.5-6.3,3.9-8.8Z"/>
  <path d="M1916.83,1007.84c4.2,2.9,4.3,7.5,4.4,11.5,8,2.3,7.5-7.4,12-11.5,2.8,1,4.7,2.5,6.2,4.3.6-4.5,1.2-9.1,1.8-13.7-9.3,1.5-18.7-.3-24.4,9.4Z"/>
  <path d="M1066.53,1500.14c11.6,3.6,23.4,7.2,33.4,13.2,40.5-51.6,81.3-120.3,86-172.8-1.9-1.9-4-2.4-5.6-6,.2-4.4,2.5-7.6,5.8-10.1-.4-2.6-1.5-6-2.5-9.3-3.1-10.3-6.6-22-1.4-31.5,2.7-4.9,7.3-8.3,13.6-10,6.2-1.7,15.2-1.7,23.3,8.2,4.4,5.5,7.4,12.4,9.8,17.9.9,2.2,2.2,5.1,2.8,6,17,18.5,47,34.8,71.1,47.8l.8.4c40.5,21.9,86.7,37.8,133.9,46.3.3-.3.6-.6,1-.9.6.4,1.1.8,1.7,1.3,1.4.3,2.9.5,4.3.8,23.6,3.9,46.9,5.8,69.7,5.8s63.3-3.8,93.3-11.4c62.1-15.7,118-43.8,166.1-83.6,32.5-27,61.6-59.3,86.7-96.3-.6-.3-1.1-.6-1.5-1.2-2.5,5.7-5.9,10.7-12.9,13,4.8-8.7,1.6-16.2-2.6-25.6,6.8,2.8,11.9-3.8,13.6-8.2,3.4.8,5.9,2.7,7.1,6.4-2,2.8-6.8,3.6-6.2,8.3.5,2.5,4.8,0,7.1.1,3.5-5.3,6.9-10.7,10.2-16.2-2.5.1-5.7-1.8-8.6-4.1-1.1-.1-2.2-.2-3.1-.4,0-.9-.2-1.8-.2-2.6-.8-.7-1.4-1.4-2.1-2.1-.2-5.3,4-12.4-3.3-14.8,1.1-.5,2.2-1.1,3.3-1.6-5.1-6.6-8.8-17.3-15.9-18.1,4.9-5.6,16.7-8.2,21.9-5.5,9.3-9.4,19.8-4.5,30.1-8.2-7.7-23.4-34.2-14.2-48.1-27.9-2.9,1.5-5.9,2.9-8.8,4.4-4.7,10.8-10,21.4-15.8,31.7-31.9,56-79.2,102.1-140.7,136.8-44.2,24.9-92.7,39.5-144.2,43.6-38.3,3-72.9.7-103.7-5.1-2.3,5.6-7.1,11-13.7,14.5-1.3-2.7-3.3-.9-4.5-4.3.7-4.5,3.9-.9,6.7-3.2-.7-5-8.6-5.9-12.1-11,.3-.3.6-.7.9-1-11.1-2.8-21.7-6.1-31.7-9.7.6,9.2,5.2,21.5-5.2,25.4-3.6-3.3,0-5.3-1.2-8.1-6.6-5.6-14.7-3-21.5-7.4-1-4.3,3.1-7.6,3.8-11.6-2-3.5-5.1-.7-7.5-2.2-3.4-4.2-4.7-8-4.9-11.6-6.8-3.4-13.4-6.9-19.5-10.5,0,10.9,1.3,21.6,12.1,32.2-3.2,4.4-13.8,12.8-18.8,11.6-4.8-16.3-7.3-32.5-23.3-46.4,1.4-4.9,5.6-9.3,2.9-14.9-14.4-10.3-26.3-20.6-35.6-29.5-.2-.3-.5-.5-.7-.8-33.6-32.5-59.3-65.6-78.5-101.1-24-44.5-38-93.6-41.6-146-1.3-18.7-1.4-36.5-.5-53.5-6.4,2.5-12.3,5.1-16.4,8.6-5.2-1.9-10.5-9.6-10.5-15.1,9.9-10.8,19.3-21.7,29.6-32.5.4.1.8.1,1.2.2,12.8-86.3,51.2-148.1,85.7-187.9,9.4-10.9,19.1-21,28.9-30.3-1.9-3.3-2.5-7.4-.8-12.5,7.9-5.3,18.4-8.9,28.6-11.6,3.1-2.4,6.2-4.8,9.3-7-3.8-4.6-8-8.8-13.5-11.7-3.5-31.2,12-43.5,26.9-56.3-3.2-9.2-10.2-13.1-14.9-20.2-24.6,14.2-47.8,30.8-69.2,49.7,6.5-3,13.5-5.7,18.1-8.7,2.2,5.3,5.5,9.1,7.2,15-15.6,5-19.4,18.6-39,20.6-2.8-4.4-3.7-8-3.3-11.2-13,12.7-25.3,26.3-36.6,40.6-34.5,43.5-61.8,94.6-78.9,147.8-20.2,62.7-26.8,128.2-19.5,194.7.9,8.1,1.6,16.3,2.2,24.3.9,11.7,1.8,22.7,3.4,32.8,1.1,7.6,2.9,15.1,4.9,22.7,15.4-8.4,42.6,3.6,19.1,23.2-4.9-.9-9.5-3.1-14.2-5.5.2.7.4,1.3.6,2,4.8,16.4,9.7,33.3,11.8,50.7.9,7.8,1.9,15.7,2.9,23.3,2,16,4.1,31.7,5.5,47.1,1.5-1.7,2.5-4,4.8-4.8,1,4-4.5,6.8-2.8,10.9,3.2,5.1,7.4,4.2,10.7,8.9-3.6,2.5-7.3,5.1-10.9,7.6,1.4,27,.2,53.2-6.6,78.6-7.5,28.2-20.1,53.4-33.4,80.2-8.2,16.5-16.6,33.5-24,51.5-.4,1.7-1.4,3.2-2.8,4.3-1.9,1.5-4.4,2.1-7,1.9-6.2-1.6-13.7-1.7-17.6,2.1,1.9,22.2,18.8,28.5,45.5,36.6h0ZM1860.13,1125.54c.4,1.9,0,4.7,1.9,4.7-3.5,6.8-14.1,5.3-15.2-2.7,4.4-.7,8.9-1.4,13.3-2ZM1838.63,1149.54c-2.6,3.7-4.6,7.6-4.9,12-4.9,1.2-2.7-14.3,4.9-12ZM1526.33,1350.44c.1-2,.8-3.8,2.5-5.1.1.2.3.4.4.6.9-1.7,1.6-3.6,1.9-5.7,5.8,2.1,9.1,5.8,11.3,10,4.3-5.3,2.7-11.7,7.9-16.8,2.2,5.4,5.6,4.6,8.6,5.9,6-2.5,12.7-8.5,17.9-6.5-2.3,12.9-22.8,14.6-32.2,22.3.6,1.7,1.2,3.4,1.8,5-1.5,1.6-3.7,2.7-6.4,3.5,0,.7,0,1.4.1,2.1-1.6.3-3.4-.2-5.1-1.2-6,.7-12.5.3-16.4-.3.9-5.8,4.5-9.6,7.7-13.8h0ZM1510.83,1377.24c6.8,10.6,13.7,21.2.2,28.2-9.9-4.4-15.5-20.1-16.8-28.5,5.7-.9,10.7,2.2,16.6.3h0ZM1438.13,1371.24c-.5,3.1-3.2,1.6-5.7,2.5.8-2.8-5-6.8-.2-8.8,1.7,3.6,3.9,4.1,5.9,6.3ZM1401.53,1345.24c2.2-5.2,14.2-.5,12.2-9.8,11,2.9,13.9-6.3,22-2.4-7.3,3.3-2.3,18.9-8.6,23.2-3.2-.9-4.2-3.9-3.7-8.6-9.4,1.2-11.9,9.3-19.6,12.2,0-5.6-3.4-7.8-2.3-14.6h0ZM1389.23,1369.44c5.8-2.7,9.8,4.3,15.9-.7,2.4,9,12.5,14.2,20.2,9.8,2.4,3.6-1.2,6.2,2.6,10.1-4.4,1.9-7.5-3.7-11.6-3.8-3.7,2.6-7.4,5.1-11,7.7-5.3-5.9-16.8-15-16.1-23.1h0ZM1092.93,984.14c-11.9-14.1,2-23.7-1.4-36.3,11.4,10.8,15.9,27.3,1.4,36.3ZM1083.73,909.24c.6-4,2.7-7.6,5.5-10.9-1.3-4.2-5.2-.8-6.6-4.9,1.2-3.9,3.8.2,6.6-.5,1.5-11.7,3.3-23.2,9.3-33.4,7.4,9.8,6.1,24.5,6.6,35-11.3,3.1-15.9,7.7-21.4,14.7h0ZM1157.53,1151.14c3.3-2.2,7.4-3.4,12.2-2.9,6.1,11.3,11.9,22.7,5.3,29.1-4.4,4.3-10,2.9-15.8,1.7-6.8,2.2-14,4.3-16,6.5-6.9-6.5-1.6-18.9-5.2-26.4,4-3.7,11.9-7.1,19.5-8h0ZM1110.03,1148.04c1.4-3,4.5-5.6,5.9-8.6-1.2-3.2-6.1-3.9-.2-8.8,6.1,7,15.2,14.4,16.1,23.1-7.2-1.8-15-.8-21.8-5.7Z"/>
  <path d="M1876.43,1190.14c.4-.6.7-1.2,1.1-1.9-.6.1-1.3.2-2,.3.3.6.6,1.1.9,1.6h0Z"/>
  <path d="M1908.13,1127.44c-2.9,2.7-3.7,6.6-4.6,10.6,1.6-3.5,3.1-7.1,4.6-10.6Z"/>
  <path d="M1745.53,149.74c2.8-.4,5.6-.8,8.5-1.3-5.1,9.3-8.7,23.5-4,38.1,1.9-.9,4.3-1.5,7.2-1.7.5,2,1.2,3.7,2,5.4,25.8-16.2,58.9-29.5,96.5-38.4,7.7-1.8,15.6-3,23.2-4.2,15.6-2.4,30.3-4.7,43.5-11.8,3.4-1.8,6.7-4.1,9.9-6.8-4.5-4.3-8.3-9.5-10.4-17,8.4-4.2,14.7-9.9,25.3-12.4,1,2.5,2.2,4.9,3.5,7.2.6-1,1.1-1.9,1.6-2.9,6.2-11.7,12.7-30.1,8.5-52.2-4.2-21.8-31.2-48-52.6-51.1-17.6-2.4-44.9,5.1-56.1,19.8-5.9,7.7-6.6,16.4-2.2,26.6,1.9,4.2,4.9,5.1,10.9,6.5,7.5,1.7,20,4.6,19.5,22.8-.3,10-5.8,17.1-15.5,20-7,2.1-15.6,1.9-24.6,1.8-6.9-.1-14-.2-20.5.7-31.7,4.4-55.1,22.1-79,41.7-.1,2.8,1.2,5.9,4.8,9.2h0ZM1784.63,146.44c-10.2,1.6-17.7-6.4-26.3-2.3,2.2-9.5,26.4-9.5,26.3,2.3Z"/>
  <path d="M1920.03,881.74c.4-1.6,2.2-1.9,2.4-3.7,6.6.4,12.6,1.5,15.9,5.4-.6-3.6-1.2-7.2-1.8-10.7-.2-.3-.4-.5-.6-.8.1-.3.2-.5.3-.8-7.3-39.2-18.5-71.7-27-92.9-13.4-33.6-29.7-64.5-48.9-92.5-3.2.1-6.6-.4-10.2-1.6-5.7-8.2-9.2-19.6-15.2-27.4.3-1,.8-2,1.4-2.9-11-13.3-22.8-25.8-35.4-37.6-1.8,8.2-.8,14.8,10.5,17,2.4,12.5-17.6,1.9-16.7,12.4-6.7-4-7.5-16.1-19.3-13.2.2,8-9,9.2-11.3,15.3,1.1,8,12.7,6.8,9.8,15.9-5.5,1.1-6.8-3.5-10.6-4.6-4.2,2.6-4.6,8.1-5.5,13.2-7.3-1.8-14.9-15.2-10.9-23.1,4.3-1.4,6.6-.1,8.8,1.2,2.6-1.6,3.3-4.7,2.4-9-8.3-4.4-23.9-12-29.6.7-3.1-8.4-1.2-13.8-.8-22.1-6.2,2.2-10.4,5.9-13.3,10.6,1.8,5.1,6,10.8,8,16.4,9,6.9,17.6,14.3,25.9,22.1,10,9.5,19.1,18.9,27.6,28.2,9.6,1,17.8,4.1,29.3,2.6-.2,3.8-4.1,4.8-5,8.2,2.1,6.8,11.4,12.7,6.7,20-7.5-1.7-9.6-10.6-14.6-15.1-2.1-1.9-4.4-3.3-6.8-4.7,18.1,21.4,32.7,42.9,44.6,65.7,1.3,2.5,2.6,5.1,3.8,7.6,2.7-1.5,5.6-2.6,9-3.3-2.3,4.8-3.8,10-3.3,15.8.6,1.5,1.3,2.9,1.9,4.4,6.7,4.6,15.6,2.4,24.8-.5,5.3,8.5,3.8,17.9,11.5,23,8,5.3,11.1,2.2-5.5,2.7-5.5-9.3-14.3-8.8-23.6-6.5,10.8,30.6,17.6,63.7,20.4,99.9v1.7c1.1,0,2.1.2,3.1.6,1.1,3.9,3.3,4.7,4.9,7.1-1.9,2-4.4,4-7.1,5.9.4,8.5.6,16.9.6,25.1,1.6,1.7,3.4,3.5,5.5,5.1,5.6,4.3,9.7,4.2,13.7,8.2-3.4,4-11.1,6.6-17,9.8,7.2,10.1,15.5-5.4,24.6-8.2,2.1,9.2,8.3,22.4,18,17,3.4-6.7-4.4-14.7-8.2-21.9,10.3-4.4,17.1,1.6,26.8-1.1,2.6,5.2,5.5,9.2,8.7,12.3,2.1-30.2.4-59.2-3.3-85.9-9.9,0-13.5-6.7-19.5-11h.1ZM1811.33,672.64c-.4-.1-.9-.2-1.3-.3.4,5.4,8.5,6.7,5.5,13.5-7.1-1.9-19.1-4.6-13.4-15.3,1.2-.2,2.4-.4,3.7-.5-6-5.2-7.8-16.3-8.4-24.9,20.8-16.6,32.2,20.4,13.9,27.5ZM1902.93,837.74c0,8.9-1.1,9.9-1.2,17.1-10.5-.9-9.9-12.9-15.9-18.3,2.6-5.8,14.5-1.1,17.1,1.2ZM1898.83,960.84c-9.2-2.5-17.2-8.6-24.6-16.4,4.9-2.1,7.1-8.6,12.6-7.7,3.3,5.7,2.2,9.8,0,13.7,6.6.3,15.5,1,12,10.4ZM1906.63,924.54c-5.9.6-4.1-6.5-6.1-9.8-5.4-2.7-11.7,2.2-17.1-1.2,1.7-23.3,29.7-2.7,23.2,11ZM1943.13,940.04c1,4-2.3,6.5-6.6,8.7-1-2.7,2.8-3.9.5-7.1,2.7-2.4,3.7.2,6.1-1.6h0Z"/>
  <path d="M1723.03,204.84c-3.5.7-8,.5-9.5,2.7,1.2,3.4,5.9,7.4,9.6,12.4,2.7-3,5.5-5.8,8.3-8.5,3.7-3.5,7.7-6.9,12-10.2-.7-2.6-.8-5.3.1-7.8h-.2c2.1-12.8-11.9-8.5-20.8-10.3,3.7,6.6,4.8,15.5.5,21.7h0Z"/>
  <path d="M1664.33,215.64c-1.8,2.4-3.5,4.8-5.3,7.2.7.7,1.3,1.3,2,2,2-2.3,2.9-5.6,3.3-9.2Z"/>
  <path d="M1332.13,618.84c-.3-13.6.4-26.6,16.8-27.9,3.4,6.4,5.2,12.2,5,16.9,36.4-16.7,76.6-26.8,119.6-30.2,1.6-.1,3.3-.2,4.9-.3-1-2.1-2.2-3.9-4.8-3.8-4.6-.2-4.9,2.8-9.5,2.7-3.4-5.6-7.8-9.8-14.1-11.5.3-4.1,6.3-3.9,9-6.3,1.1,4.9,3.5,7.9,5.4,11.6,12.2-2.4,19.7,1.5,28.9,3.1,5.8-1.8,2.6-10.2,8.1-12.3,3,4.4,4.5,10.8,7.1,15.7,12.1,0,24,.6,35.7,1.7,3.9-1.4,6.7-4,7.9-8.9,0-3.9-3.7-2.7-4.5-5.5-.1-4.1,1.9-6.5,3.6-9.2,6.4,1.6,6.3,11.8,11,15.7,1.1-.7,2.2-1.4,3.2-2.2-.3-1.1-.7-2.2-1.3-3.3,7.3-4,12-7.5,20.8-8.5,1.1-.4,2.3-.8,3.5-1.1.1-.8.3-1.7.6-2.6-2-2-6.4-.8-7.5-4-.6-3,1.3-4,1.5-6.4,5.2-.8,8.9.7,11.7,3.5,1.4-.3,3.1.1,4.9,1.7-.6,1.2-1.1,2.4-1.5,3.6,2.6,5.8,3.4,13.7,3.6,21.1,5.7,8.2,15.3,15.1,22.6,22.1-.1-1.5-.1-3.2.3-5.1,3.7,3.2,10.2,7.5,17,5-.8-4.9.3-10,4.2-14.1-.2-2.3-.2-4.5.1-6.4,2.9-1.3,5.7-2.7,8.5-4.1,2.2-3.6,4.2-7.2,1.3-12,16.5,3.7,10.6-16.8,25.8-17.5,4.8,4.3-4.3,5.6-2,11.4,1.4,4.9,5.1,6.7,8.7,8.6,12.6-5.3,24.1-3.3,32.9,2.6,1.1-.4,2.3-.6,3.5-.8,2.7,4.2,5.6,8,7.8,12.7,7.7,12.5,8.6,29.1-1.6,40.5,9.7-9.1,30.7-19.1,31.5-31.2-3.6-2.7-7.3-5.3-11.1-7.8.5,3.1,1,6.1-2.8,5.9-3-2.3-1.2-5.3-1.3-8.7-2.4-1.6-4.7-3.1-7.1-4.7-2.6.2-5.4.6-7.3-.3-.2-1.5-.3-3-.2-4.3-8.7-5.3-17.7-10.4-26.9-15.2-1.8-1-4-2.1-6.6-3.4-23.1-11.5-33.8-17.9-36.2-25.3-5.5-17.2,2.5-31.1,9-42.3h.1c-1.2-1.4-2.5-2.6-3.9-3.6.7-6.5,5.1-12.7,11.1-16-.3-10.2-3.8-17.5-7.5-25.2-2.9-6-5.8-12.2-7.2-19.6v-.2c-3.6,2-7.8,3.4-13.3,4,.6-7.2-5-8-11.3-9.4,1.2-3.8,2.5-8.2-.6-12.3-5.5,1.1-5.7,2.2-10.9,1.6,2.8-5.8,6.6-10.9,7.2-18.4,6.7,1.2,11.1,5.4,21.3,1.8,1.1,2.2,2.5,4.2,3.9,6,.3,0,.6,0,.8.1-.6-13,.1-26.1,2-39.3-.9-10.9,1-20.9,6-28.4,2.2-8.1,4.9-16.1,8-24.1,2.8-7.1,6-14.2,9.4-21.1-5,1.8-8.1,5-14.5,5.7-3.3-6.7-9.6-9.4-12.4-16.7-3.9-1-9.8.6-13.7-.4.1-3.5,2.2-5.5,4.2-7.7-1.1-.6-2.2-1.3-3.2-2.1-.4,1-.7,2.1-.9,3.1-1.7-1.6-3.5-2.9-5.5-4.2-15.8,27.4-28.6,57.7-38.6,92-1.8,6.3-3.6,12.7-5.4,19-10.1,35.9-20.6,73.1-40.4,98.6-23.6,30.3-63.8,35.2-102.6,39.9-15.6,1.9-31.7,3.8-46.4,7.4-2.2.5-4.3,1.1-6.5,1.6-.6,3.1-2.6,4.6-5.3,5.3,0,.3.2.5.3.8-6.4,2.7-12.9,2.6-19.3,1.1-10,3.3-20,6.9-29.7,11,2,3.2,3.4,7.2,5.4,10.6-14.6-.1-19.4,11.5-29.6,18.1.7,7.2-1.8,14.3-9.4,17.8,5.6,2.4,9.4,6.7,16.6,7.5-11.6,14.7-11.8,28.6,2.1,36.8h0ZM1660.63,517.24c.9,8.5,4.5,13.2,9.8,15.9-3.4,9.1-19.4,25.2-27.9,11.6,2.4-1.8,6.6-2.3,7.9-4.9-4.2-6.9-11.6-9.5-18.1-13.4,7.6-6.2,19-12.8,28.3-9.2h0ZM1651.03,379.14c-3.3-.7-4.8-3.4-4.9-7.3,3.3.7,4.8,3.3,4.9,7.3ZM1554.33,509.64c5.9-4.3,12.5-8,20.7-10.5,2,8.1,7.9,11.3,6.7,20-4.6.5-3.9-6.3-8.3-6.2-5.7,2.8-19.7,9.7-19.1-3.3h0ZM1552.23,528.54c5.4-2.1,9.2-5.4,15-7.2,8.6,5.6,4.3,19.2,2.8,26.8,1,4.7,7.7-2.6,11.2.8-11.5,12.4-29.9-1.8-29-20.4h0ZM1406.93,560.04c.5,5.8-2.2,8.4-1.2,14.7-5.6,2.6-8.9,7.4-15.9,8.6,0-13.6,3.5-23.6,17.1-23.3h0Z"/>
  <path d="M1687.03,272.84c2.8-5.6,5.9-11,9.1-16.4-2.4,1.2-5.1,2.2-8.2,3-.9-1.6-2.3-2.7-4.2-3.1-1.7-9.7,2-17.7-4.6-22.8-3.4,0-5.8.7-7.9,1.6,3.7,3.8,7.3,7.7,10.9,11.7,1.9,11.6,1.3,17.8,4.9,26h0Z"/>
  <path d="M1730.93,168.04c4.3-6.2,3.8-13.9,2.8-21.7-1.4,1.2-2.8,2.3-4.2,3.5.5.7,1,1.4,1.5,2.1-2,5-6.1,10.9-.1,16.1h0Z"/>
  <path d="M1707.43,632.74c-1,.4-2.1.7-3.1,1.1,1,.7,2,1.3,3,2v-3.1h.1Z"/>
  <path d="M1562.13,580.24c1.6.2,3.1.5,4.7.7-.1-.6-.2-1.3-.3-1.9-1.5-1.4-3.1-2.6-4.8-3.7-2.8,2.2-1.6,3.7.4,4.9h0Z"/>
  <path d="M1728.63,617.14c.7-.6,1.3-1.3,1.9-2-.7.7-1.3,1.4-1.9,2Z"/>
  <path d="M1369.93,1305.34c1.4,0,3.3-2,5.5-3.6-5.2-2-10.3-4.1-15.2-6.2,3,4.4,6.2,8.3,9.7,9.8Z"/>
  <path d="M1657.43,225.04c-.1.1-.2.2-.3.4.1.1.2.2.3.3v-.7Z"/>
  <path d="M889.43,1689.84c-6,13.6-12.3,27.7-19.8,41.4-11.7,21.2-21.5,44.7-31,67.5-3.1,7.5-6.3,15.2-9.5,22.6-26.9,62.8-54.9,125.9-79.7,181.7-121,272.4-225.2,551.4-317,849.6.2,0,.4.3.6.5-.4,2.6-1.3,4.6-2.6,6.2-10.4,34-20.7,68.2-30.9,102.8-2.3,7.8-4.7,15.6-7,23.5-18.3,61.6-37.3,125.3-40.9,189.7-7.6,135.4,12.6,252.6,58.4,340.1,129.4-393.2,267.4-784.4,401-1163,24.8-70.2,50.4-142.8,75.6-214.3,17.1-48.4,36-97.3,54.3-144.5,24.9-64.5,50.7-131.1,71.6-196.3,2.7-8.2,5.1-16.9,7.5-25.4-8.2,8.5-19.8,15.7-35.3,18.9-19.8,4.1-38.3,2.3-53.7-5-15.3-7.3-26.5-19.9-31.6-35.6-7.1-22.2-5.8-42.8,3.9-59.7,8.4-14.6,22.8-25.9,40.6-31.6,8.3-2.6,17.1-4,25.8-4,27.4,0,54.2,13.4,63.5,42.2.9,2.9,2.9,11.8,3.4,22.8,5.2-12.5,11.5-24.5,19.8-35.7-1.5-25.6.5-52.6,2.5-78.9,1.5-18.8,3-38.1,3.2-57.1-12-7.5-26.1-13.1-40.9-18.9-4.2-1.6-8.4-3.3-12.6-5-13.6,22-31.4,41.7-48.8,60.8-17,18.8-34.6,38.1-47.9,59.5-8.4,13.4-15.2,28.9-22.5,45.2ZM373.03,3394.84c-2-2.9-2.8-7-4.9-9.8,4.2-4.6,13.8,4.4,15.9,9.8h-11ZM393.83,3152.64c.5-2.9-2.2-2.7-1.2-6.1h8.6c-.4,4.1-4.1,4.9-7.4,6.1ZM388.93,3065.84c-2.4-6.2-4.1-13-7.3-18.3,1-4,8.1.6,11-3.7-3.3-10.9-3.7-16.1,1.2-25.7,15.6-.3,16,19.3,6.1,25.7,2.5,6.1,9.8,7.3,9.8,15.9-7.1,1.8-12.2,5.7-20.8,6.1h0ZM428.13,2867.74c6.5,0,7.9,5.2,8.6,11-7.2.6-9.4-3.7-8.6-11ZM411.03,3087.84c.8-3.6,4.9-4.1,9.8-3.7-.8,6.5-5.6,1.7-9.8,3.7ZM426.93,2922.74c1.7-4.8,11.6-1.4,17.1-2.4-2.3,5.8-11.3,3-17.1,2.4ZM468.43,2840.84c2-4.5,1-12,1.2-18.3,8,.6,3.4,13.7,7.3,18.3-1.5,1.7-6.8,1.7-8.5,0ZM497.83,3171.04c-3.8.1-5.8-1.5-8.6-2.4,2.2-5.2,6.2-8.5,9.8-12.2,6.3,3.1,2.7,11.6-1.2,14.6h0ZM600.03,2538.54c1.5-5.2,1.5-10.7,0-15.9,3.3,3.2,4.9,8.2,6.1,13.5-2.4.5-2.2,3.4-6.1,2.4ZM633.03,2353.84c-2.2-.3-2.8-2.1-2.4-4.9,2.2.2,2.6-1.5,4.9-1.2-1.3,1.6-1.3,4.5-2.5,6.1ZM623.23,2334.34c.2-6.5,6.2-10.4,12.2-7.3.2,6.6-5,7.9-12.2,7.3ZM672.13,2326.94c-1.6-5.8-6.7-8-14.7-7.3,1.3,6.5,3,12.5,11,12.2-4.5,9.7-19.7,20-30.6,12.2-.4-4.2,5.5-8.3,1.2-12.2,11.3-3.4,18-11.4,20.8-23.2,10.7-6.7,19.9-3.5,25.7,6.1-3.3,5.2-7.7,9.3-13.4,12.2h0ZM679.43,2199.74c2.4-2,8.9-3.9,12.2-1.2,1.7,9.6-12.5,8.9-12.2,1.2ZM700.23,2326.94c-3.8-15.6,10.8-23.5,9.8-40.4,13.2,12.3,1.5,34.6-9.8,40.4ZM723.53,2359.94c-4.7-.2-4.8-5-8.6-6.1,1.4-1.3,9.5,1.1,8.6,6.1ZM745.53,2362.44c-4.8-1.7-7.1-5.9-7.3-12.2,1.8-1.9,6.3-1.1,9.8-1.2-.1,7.7-.7,7.3-2.5,13.4h0ZM740.63,2340.44c-4.3-3.7,5.7-2.4,7.3-1.2-.7,4-7.9-1.6-7.3,1.2Z"/>
  <path d="M951.83,1704.14c-5.2,3.1-11.4,9.3-10.9,21.2.3,6.3,3.1,12.2,7.7,16.3,5,4.3,11.5,6.3,18.9,5.7,14.2-1.3,23.7-9.9,24.2-22.1.4-9.8-3.3-17.2-10.5-21.4-8.6-5-20.6-4.9-29.4.3Z"/>
</svg>