<?xml version="1.0" encoding="UTF-8"?>
<svg id="Layer_1" data-name="Layer 1" xmlns="http://www.w3.org/2000/svg" viewBox="0 0 1981.3 3515.4">
  <defs>
    <style>
      .cls-1 {
        fill: none;
      }
    </style>
  </defs>
  <path class="cls-1" d="M1230.24,2454.9c0,7.2-3.6,11.1-2.4,19.6,5.6.5,10.2,2.1,13.5,4.9-2-10-4.5-19.3-11.1-24.5Z"/>
  <path class="cls-1" d="M1237.54,2426.8c3,1.4,7.2,1.8,11,2.4,3.9-5.5,6-10.5,13.5-9.8-6.2-9.1-19.7,3.2-24.5,7.4Z"/>
  <path class="cls-1" d="M1284.04,2693.4c-.8,5.6,2.7,7,2.4,12.2,4.6,0,6.6-2.4,7.3-6.1-2.1-3.2-4.4-6.2-9.7-6.1h0Z"/>
  <path class="cls-1" d="M1217.44,2248c.3-1,1-1.4,2.4-1.2v-6.1h-3.7c-.5,2.6-2.8,6.5,1.3,7.3h0Z"/>
  <path class="cls-1" d="M1232.04,2201.5v4.9h6.1c-.4-3.3-3.2-4.2-6.1-4.9Z"/>
  <path class="cls-1" d="M160.84,694.8c-4.7-10.4-13.7-2.3-22,0v12.2c10.2,3.3,15.1-8,22-12.2Z"/>
  <path class="cls-1" d="M1353.74,2777.7c7.9-.6,10.5-4,15.9,1.2.8-13-1.6-22.9-4.9-31.8-11.7,2.8-18.2,19.8-11,30.6Z"/>
  <path class="cls-1" d="M1249.24,2224.7c-3.9-.6-4.3,2.2-8.6,1.2,2.4,5.8,4.7,11.6,8.6,15.9.8-4.6,2.7-12.9,0-17.1Z"/>
  <path class="cls-1" d="M1308.44,2720.3c.3-2.2,2.1-2.8,4.9-2.4-.9-4-3.4-6.4-7.3-7.3-5,1.6-7.6,5.4-12.2,7.3-.4,6.5,1.5,10.7,2.4,15.9,11.3,1.7,16.2,9.9,24.5,14.7,2-15.6-12.9-14.2-12.3-28.2h0Z"/>
  <path class="cls-1" d="M1575.74,3170c-7.8-1.5-6-12.7-14.7-13.5-5.2,9.5-7.5,21.9-13.5,30.6,9.4,0,10,8.8,19.6,8.6-1.6-13,.9-21.9,8.6-25.7Z"/>
  <path class="cls-1" d="M1520.74,3277.7c22.8,2.4,24-16.8,31.8-29.4-14.7-1.3-27.3,1.5-37.9-4.9-4.5,12.9,9,22.7,6.1,34.3Z"/>
  <path class="cls-1" d="M1551.24,3069.8c-17-7.5-28.6-20.3-39.1-34.2-.3,22.7,12,43.5,23.2,58.7,5.9-7.6,17.7-9.3,15.9-24.5Z"/>
  <path class="cls-1" d="M1421.64,3042.9c10.5,3.4,15.1,12.6,17.1,24.5,20.1,1.7,27.5-9.2,36.7-18.3-3.2-21.6-44.5-24.4-53.8-6.2Z"/>
  <path class="cls-1" d="M1427.74,3066.1c-1,3.8-4.6,5.2-4.9,9.8,4.2.3,11.6-7.3,4.9-9.8Z"/>
  <path class="cls-1" d="M1589.14,3148c4-9.6-1.9-15.8-7.3-19.6-.1-3.8,3.8-3.5,2.4-8.6-2-2.5-3.3-5.7-7.3-6.1-5.7,6.8.7,15.4,0,24.5-.2,3.9-6.5,5.3-3.7,8.6,4.7,1.5,12.1,2.5,15.9,1.2Z"/>
  <path class="cls-1" d="M1540.24,2951.1c-1.6-2.4-8.5.4-8.6-3.7,1-5.8,10.8-8.3,7.3-14.7-5.2-.7-4.2,4.8-8.6,4.9-6.6-1.6-15-8-19.6-1.2,1.4,6,9.4,5.3,8.6,13.5-15.2,4.3-23.2,16-28.1,30.6,5.7,5.8,15.1,7.7,19.6,14.7,14.6-8.9,42.5-19.2,29.4-44.1h0Z"/>
  <path class="cls-1" d="M71.64,1107.9c3.8-1.8,12.6-.2,12-6-2.6-.5-11.2,3-12,6Z"/>
  <path class="cls-1" d="M111.04,1096.4c15.3-16.6-13.5-15.2-24.1-18.1,1.7,6.1,3.6,17,7.7,20.8-1.3-2.9-.5-5,2.2-6.6,4.6,1.8,8.7,4.9,14.2,3.9h0Z"/>
  <path class="cls-1" d="M835.74,793c-1.4,1-.9,2.7-2.2,3.8,6,4.1,18.6,7.2,23-.5-.7-1.5-1.5-2.9-2.2-4.4-6.6,1.7-13.1,3-18.6,1.1h0Z"/>
  <path class="cls-1" d="M1108.04,1283.8c-3.5,1.7-2.3,4.3-6.3,5.9-5,.2-9.1-5-14-5.2.5,6,3.2,12.3.3,17.6,16.9-9.1,26.9,19.6,45.2,2.8-4.5-10-18.7-6.1-25.2-21.1Z"/>
  <path class="cls-1" d="M843.44,781c3.5-4.2,9.2-11.8,4.4-15.9-3.3-2.2-4.2,4-8.8,4.4-6.6-3-9.6-16.6-18.6-12.6,7.4,8.8,13.4,21.8,23,24.1Z"/>
  <path class="cls-1" d="M771.74,686.9c-4.4,1.3-4,4.1-1.6,7.7,5.8-1.8,5.2-5.1,1.6-7.7Z"/>
  <path class="cls-1" d="M866.54,1419.9c8.7.9,12.4,7.8,21.2,9.1-1.6-7.3,7-12.8,7.1-19.8-3.7,1-6.5-3-10.8,1.6-4.2,2.5,0,6.4-4.2,8.9-11.4-7.5-2.8-20.8-8.3-27-5.4,2.7-.6,7.3-6.6,7.6-2.9-3.5-6.3-3.8-9.3-6.9-5.9,8-4.1,17.4-14.1,24.7,6.9,7.7,16.9,1,25,1.8h0Z"/>
  <path class="cls-1" d="M33.44,968.4c-3.3,2.5-4.5,5.8-1.6,10.4,5.5-2.3,6.3-7.2,1.6-10.4Z"/>
  <path class="cls-1" d="M40.54,1001.8c3.3-1.6,10.8-1.7,12-6-3.1-2-12.1,1.8-12,6Z"/>
  <path class="cls-1" d="M888.74,877.3c-3-4-2.1-6.8-3.8-10.4-6.2,4.6-9.2,10.3-6,18,5.1-1.9,7.6-4.8,9.8-7.6Z"/>
  <path class="cls-1" d="M162.14,1174c-4.2.9-4,5-7.7,6.1-6.1-6.3-4-23.7-14.7-23.8-.4,7.9-10.3,8.9-12.5,15.5,5.7,5.3,5.6-2.7,11.9-3,4,15.9,9.3,30.1,26.5,28.2.7-6.1,2-18.9-3.5-23h0Z"/>
  <path class="cls-1" d="M110.74,1120.9c-8.3,1-8,8.4-10.3,13.9,5.2-3.4,8.6-8,10.3-13.9Z"/>
  <path class="cls-1" d="M842.54,1357.6c-6.3,2.7-10.8-4.8-17-3.1-10.6,9.5-1.4,22.6-6.8,33,14.1-4,27.7-17.4,23.8-29.9Z"/>
  <path class="cls-1" d="M184.84,1238.6c3.8-3,9.5-5.3,7.1-10.4-6,2.3-7.2,6.1-7.1,10.4Z"/>
  <path class="cls-1" d="M121.94,1137.8c-5.2,6.2-12.4,10.9-18.6,16.4,0,12.6,8.9,4.6,16,7.5,2.5-6.1,7.3-16.1,2.6-23.9Z"/>
  <path class="cls-1" d="M582.74,569.5v.6c1.4.6,2.8,1.3,3.7,2.4,6.8-.6,10.4-4.2,11-11-3.5.3-6.2-.3-7.3-2.4,4.3-1.7,1.2-9.9-3.7-9.8-1.1,1-1.9,2.4-2.5,4-.9.5-.9,1.3-.6,2.2-.3,1.2-.4,2.5-.5,3.9-.9-.9-1.7-2.1-2.4-3.9-3.6,3.7-4.2,8.3-2.7,13.7,2.3-1.9,3.2.5,5,.3Z"/>
  <path class="cls-1" d="M780.84,1336.1c-.2.2-.3.4-.4.7,0-.3.3-.5.4-.7Z"/>
  <path class="cls-1" d="M375.64,1335.2c-3.9,4.6-1.5,10.4-9.6,9.7-2.9,9.7,13.6,22.9-1.1,30.6,5.2,7.1,12.2,4,18.1,6.8,0-3.8-2.5-8.1-.6-11.5,14.9-11.7,9-26.6-6.8-35.6Z"/>
  <path class="cls-1" d="M192.54,1221.1c2.6-.5,4.5,1.2,7.7-1.1-.5-4.4-7.9-1.7-7.7,1.1Z"/>
  <path class="cls-1" d="M543.74,569.8c-2.9,9.2,8.1,12.9,14.8,10.4-4.2-5.3.8-7.6-2.2-12.6-4.5,1.8-8.7,2.5-12.6,2.2h0Z"/>
  <path class="cls-1" d="M422.34,540.3c8.5-7.2,11.3-16.3,9.8-26.8-4.3.4-11.1.7-12,6-3.1-1.5-4.8-7.4-9.3-4.9-.8,5.2-1.6,10.4-1.6,15.9,6.8-4.2,8.6,6.9,13.1,9.8Z"/>
  <path class="cls-1" d="M517.54,544.7c-3.7,1.5-4.6,3.9-3.3,7.1,2.3-2,5.1-3.8,3.3-7.1Z"/>
  <path class="cls-1" d="M539.94,543.2c5.8-1.9,10.6-4.8,13.5-9.8-8.2,0-9.9-23.3-18.3-22-13.1,2-1.3,28.8,4.8,31.8Z"/>
  <path class="cls-1" d="M152.04,1203.1c2.7-3.1,7.7.2,7.7-3.8-2.2-1.2-9-.6-7.7,3.8Z"/>
  <path d="M1580.64,3209.2c3.2,7.2,8.1,29.6-1.2,34.2-2-4.1-.4-11.8-2.4-15.9-3.9-1.8-9.1-2.3-13.5-3.7,4-5,7.5-13.4,4.9-18.3,6.8-10.3,27.6-27.2,41.2-19.2-3.9-53.8-14.1-102.5-27.8-153.8-.1-.3-.2-.7-.3-1-.8-3.1-1.7-6.2-2.5-9.3-6.9,4.2-18.7,5.2-26.4,1,5-11.7-7.9-14.5-4.9-28.1,4.7-8.8,13.1-7.8,22.1-6.7-125.4-454.2-299.2-863.3-470-1239-16.1,54.4-35.5,106-54.4,156.1-9.8,26.2-19.9,53.2-29.5,80.2,68,167.7,129.1,346.3,188.2,519.1,9.1,26.5,18.2,53.3,27.5,80.2,2.1.9,4.1,3.9,3.6,6.7-.6,0-1-.3-1.5-.6,18.2,53.1,36.8,106.6,55.5,159.3,17.3,48.8,35.1,98.6,52.3,146.8,16.6,46.4,33.3,93.2,50,140.2,1.3-.9,2.8-1.6,4.6-2.1,6.1,3.3,10.4,8.4,18.3,9.8-.8,9-7.2,12.5-15.1,14.3,20.3,57.3,40.5,114.9,60.5,172.8,8.6-5.4,7.4-26.4,21.9-17.1-.9,10.6-7.2,22-6.1,30.6,9-1.2,19.6,5.3,18.3,18.3-6.2,2.8-11.9,6-20.8,6.1-1.2-3.3-2.5-6.4-2.4-11-.6-.4-1.3-.7-2-1,4.1,12.1,8.3,24.2,12.4,36.3,9.9-4.4,24.5-4.1,37.4-1,5.7,12.5-.5,28.1-2.4,40.4-7.2,2.4-14.4,2.9-21,1.8,2.1,6.3,4.3,12.7,6.4,19,4.5-1.8,9.6-2.2,14.6,0,1.3,6.7-3.4,12.2,0,17.1,6.1-.8,5.9-8,7.3-13.5,4.9,2,9.3,4.5,12.2,8.6,1.2,10.9-6.3,11.2-11,13.5-1.7,13.3-.3,27.2-2,38.3,10.5,32.1,20.9,64.2,31,96.2,27.7-53.6,45.9-122.6,53.9-205.4h-4.9c1.5-4.7.4-17.5-2.4-19.6,2.3-3.8,5.5-4.1,9.2-3.3,2.3-33,2.4-63.4.7-92.2-11.9,3-19.8,9.8-29.5,14.9h0ZM1249.24,2224.7c2.7,4.2.8,12.5,0,17.1-3.9-4.3-6.2-10.1-8.6-15.9,4.2,1,4.7-1.8,8.6-1.2ZM1232.04,2201.5c2.9.8,5.7,1.6,6.1,4.9h-6.1v-4.9ZM1219.84,2246.7c-1.4-.2-2.2.3-2.4,1.2-4-.7-1.8-4.6-1.2-7.3h3.7v6.1h-.1ZM1227.74,2474.4c-1.1-8.5,2.3-12.3,2.4-19.6,6.6,5.2,9.2,14.5,11,24.5-3.2-2.8-7.8-4.4-13.4-4.9ZM1248.54,2429.2c-3.8-.7-8-1-11-2.4,4.8-4.2,18.3-16.4,24.5-7.3-7.5-.8-9.6,4.2-13.5,9.7h0ZM1286.44,2705.6c.3-5.2-3.2-6.6-2.4-12.2,5.4,0,7.7,2.9,9.8,6.1-.8,3.7-2.8,6.2-7.4,6.1h0ZM1320.64,2748.4c-8.3-4.8-13.1-13-24.5-14.7-.9-5.2-2.9-9.4-2.4-15.9,4.6-1.9,7.3-5.8,12.2-7.3,4,.9,6.4,3.4,7.3,7.3-2.8-.3-4.6.3-4.9,2.4-.5,14.1,14.4,12.7,12.3,28.2h0ZM1369.64,2779c-5.4-5.2-8-1.9-15.9-1.2-7.2-10.9-.7-27.8,11-30.6,3.3,8.9,5.6,18.8,4.9,31.8ZM1422.84,3075.9c.3-4.6,3.8-5.9,4.9-9.8,6.7,2.5-.7,10.1-4.9,9.8ZM1438.74,3067.3c-2-11.9-6.6-21.1-17.1-24.5,9.3-18.1,50.6-15.3,53.8,6.1-9.1,9.3-16.6,20.1-36.7,18.4ZM1576.94,3138.2c.7-9-5.7-17.7,0-24.5,4.1.4,5.3,3.7,7.3,6.1,1.4,5.1-2.6,4.8-2.4,8.6,5.5,3.8,11.3,10,7.3,19.6-3.9,1.3-11.3.3-15.9-1.2-2.8-3.2,3.5-4.6,3.7-8.6ZM1491.34,2980.5c4.9-14.6,12.9-26.2,28.1-30.6.8-8.2-7.2-7.5-8.6-13.5,4.5-6.8,13-.4,19.6,1.2,4.4,0,3.4-5.6,8.6-4.9,3.5,6.4-6.3,8.8-7.3,14.7,0,4.1,6.9,1.2,8.6,3.7,13.1,24.8-14.8,35.2-29.3,44-4.6-6.9-14-8.9-19.7-14.6h0ZM1551.24,3069.8c1.8,15.2-10,16.9-15.9,24.5-11.3-15.2-23.5-36-23.2-58.7,10.5,13.8,22.1,26.7,39.1,34.2ZM1520.74,3277.7c2.9-11.5-10.6-21.4-6.1-34.2,10.6,6.4,23.2,3.6,37.9,4.9-7.9,12.5-9,31.7-31.8,29.3ZM1547.64,3187.2c6-8.7,8.3-21.1,13.5-30.6,8.7.7,6.8,11.9,14.7,13.5-7.7,3.8-10.2,12.7-8.6,25.7-9.7.2-10.3-8.7-19.6-8.6Z"/>
  <path d="M904.74,1546.1c1,10.5,1.1,21.9,1.1,33,0,12.3,0,24.8,1.5,35.7,1.5-2.1,2.9-4.2,4.3-6.3,16.5-24.4,33.6-49.6,60.9-65.2-4.4-8.3-8.9-15.2-14.7-20.5-8.5,3.9-17.3,7.7-25.8,11.3-9,3.9-18.3,7.9-27.3,12Z"/>
  <path d="M106.84,1057.2c.5.4.9.8,1.4,1.3,0-.4-.2-.8-.3-1.2-.4,0-.8,0-1.1-.1Z"/>
  <path d="M93.04,948.9c0-9,.2-17.8.7-26.7-2.8,4.4-7.3,7.5-9.4,12.4,3,4.7,6,9.4,8.7,14.3h0Z"/>
  <path d="M6.64,83.8c2.1.9,4.1,1.8,6.4,2.4-2.1-1.2-4.4-1.7-6.5-2.9v.5h.1Z"/>
  <path d="M26.44,888.4c2.9.4,5.9.3,9.2-.4,6-6.8,3.7-16.4.6-26.3,8.5-5.3,17.9-3.8,23-11.5,5.3-8,2.2-11.1,2.7,5.5-19.7,11.7,4.6,38-3.3,53.6,1.1,3.8,3.4,4,6,3.5-1.3-3.8-1-7.9,2.3-12.8,7.4,5,15.7,8.6,28.1,6.9,5.3-53.8,21.6-104.9,48.8-151.3,4.2-7.1,8.5-14.1,13.1-20.9-2.5.1-4.9-.5-7-2,1.5-4.9,8.4-4.4,12.9-6.3.6-.9,1.2-1.7,1.8-2.5-.2-2.5-2.1-3.4-1.3-7,3,.3,4.6.4,6.1.6,16.3-21.3,34.9-40.8,55.6-58.2,19.7-16.7,40.7-31,62.8-42.9,9.1-22.1,10.8-50.4,2.7-79.8.3-.7.7-1.4,1.1-2-1.8-.9-3.5-2-5.2-3.1-32.7,16.4-62.2,35-88.7,55.7-1.4,4.2-3.2,7.9-9.2,7.4-25.2,20.8-47.6,43.6-67.2,68.7,2.9,3.4,5.9,6.5,7.9,10.7-4-2.1-7.2-5-9.2-9.1-23,29.7-42.2,62.6-57.8,98.6.3.3.6.6.9.9-2.8,5.2-4.8,11.3-7.9,16.1-14.1,35.8-23.7,72.1-28.8,107.9h0ZM138.84,694.8c8.3-2.3,17.3-10.4,22,0-6.9,4.1-11.7,15.4-22,12.2v-12.2Z"/>
  <path d="M21.94,951.2c6.4-6.8,16.1-12.4,20.2-19.9-1.1-4.9-4.9-1.7-6-6.6,2.1-1.6,3.3-.7,4.9-1.1-4-9.3-10.8-15.2-16.4-22-1.8,16.6-2.7,33.2-2.7,49.6Z"/>
  <path d="M5.44,75.2c16.9-3.7,24.9,19.2,38.5,25.2-2.9,7.4-12.5,5.8-19.7,9.8-.8,2.1-1.7,4-2.8,5.7,15.5,17.9,40.2,23.3,69.8,29.8,6.8,1.6,13.9,3.1,21.1,4.9,44.5,11,104.8,33.6,139.7,78.9,9.8,12.9,23.1,32.9,33.9,58.6.7-.2,1.4-.4,2-.6-.2,2-.2,3.9,0,5.6.6,1.6,1.2,3.2,1.8,4.8.2.2.4.4.6.6,5.6.1,12-.5,15.9,1.2-2.8,3.7-1.3,11.8-7.3,12.2-2.5-2.3-4.6-6.1-7.4-9.1,11,31.6,15.1,63.6,12.1,95.4-.6,6.5-2.2,12.4-4.1,17.9,17.5-7.5,43.8-12.1,56.1,1.2,7.1,7.7,9.2,16.5,7.9,25,1.2,0,2.5.2,3.9.5.4,2.9,4.2,2.3,3.7,6.1,4.2-4.3,9.4-.1,9.8,6.1-4.3-.7-6.3,1-7.3,3.7-.6,4.5,5.4,5.5,2.4,8.6-7.7-.3-10,4.6-17.1,4.9-1.2-2.6-2.8-7-3.9-11.5-13.9,17.4-41.2,27.4-62.9,11.7-2.3-3.9-4-8.3-5.1-13v.8c.3,6.6,3.5,12.3,7.2,18.8,5,8.9,11.1,19.8,10,35.3,1.8.7,3.8,1.4,5.8,2-1.5,3.4-3.7,5.9-6.3,8.1,14.6-6.4,36.4-5,53.3-5.3,23.7,25.7,10.6,50.2-5.6,70.5,37.9-11.8,73.5-16.6,106.4-16.6s35.6,1.5,52,4c-1.5-8-7.5-16-14.2-21.5,4.5.2,7.7,4.2,10.9,8.2,2.9-1.5,6.7-2.6,5.5-5.5,7.4,2.5,13.2,9.8,21.3,9.8.9,4.8-1.7,8.5-1.8,12.9,29.4,6.4,55.2,16,76.6,26.1,15.9,7.5,31.4,16.1,46.2,25.7,6.4-7.9,6-16.7,10.1-21.5-4.1-2-8.7-3.9-10.7-8.1,4.7-8.3,11-5,16.4-7.5,4.6-3.6-3.4-8,2.2-9,5.4.3,5.8,3.2,11.5,7.1-1-6,7.2-18.2,9.1-28-1.4-.9-2.8-1.8-4.2-2.7-6.4,4.9-13.4,6.4-21.6-1.9,4.7.6,8-1.5,10.7-4.9-22.7-13.7-46.8-25.3-72.1-34.6-1.6,3-3.3,5.8-6.7,8.2,0-5.2-3.5-9.4-7-13-2.2-.7-4.4-1.4-6.6-2.1-6.4,7.9-13.3,21.3-21.4,21.7,0-2.8,8.6-4.8,3.8-11.5,4.8-3.5,7.9-1.8,12.6-4.9,2.7-1.4.3-4.4-.5-7-6.9-2.1-14-4-21.1-5.7-13.7-3.3-28.1-4.3-43.4-5.3-23.4-1.5-47.5-3.1-71-13.6-12.4-5.6-28.7-21.2-36.7-32.4-.2-.4-.5-.7-.7-1.1-3.7,2.2-7.7,4.1-11.4,2.6,0-4,3-8,6.4-10.1-18.3-29.3-28.7-63.8-39.6-100.2-7.7-25.6-15.6-51.7-26.5-76.4-6.1,2.4-9.8,7.1-13.7,11.8-.2,2.7,4.3.6,6.1,1.2-3.4,6.4-10.6,8.9-14.7,14.7-5.5-.6-5-7.2-8.6-9.8,6.4-7.4,11-16.7,19.6-22-7.7-15.2-34.3,12-41.6-6.1,5.8-11.7,27.3-7.8,30.6-22-26.8-9.4-41.2-31.4-56.3-52.6,4.7-2,10.9-2.5,16.9-3.2-10.4-10.8-21.3-20.9-32.6-30.1-7.6.9-15.2.6-21.7-1.2-1.2.4-2.4.7-3.8.9-1.1-1.1-2.2-2.3-3.1-3.7-5.8-3.2-9.9-8.3-11-15.8,2.8-1,5.5-1.7,8.2-1.9.4-.7,1-1.4,1.7-2-19.9-14.8-42-27.9-67.4-31-7.5-.9-15.1-.8-21.9-.7-2,.1-4,.1-6,.1-10.8,0-19.9-.9-25.9-7.2-3.9-4.2-5.6-10-5.1-17.4,1-13.2,11.7-17.2,18.8-19.9,4.1-1.6,7.1-2.8,9.1-4.6-4.9-3.6-8.3-11.8-12.1-18.9-1.5,7.1-12,11.2-7.7,20.2-9.1,1.7-15.6-4.4-25.2-1.1,1.7,6.3,2.9,13.2,6,17.5-7.7,1.7-15.6.3-17.5,6-3.5-5.1-3.2-9-5.5-13.7-11.1-1.2-27.2,12.3-33.4-3.8,12.1-.9,26.5-8.4,37.2-4.9,3.3-14.4,29-15.8,41-27.3,6.8,6.3,13.1,14.4,19.3,22.5,3.9-10.8,2.5-20.3-4-28.5C105.04,8.4,93.54,2.6,80.84.1c2.7,6.3,3.9,12.6,2.3,17.8-13,1.9-23.1-5.1-31.4-17.5-15.3,4-28.9,15.4-37.6,31.8-3.3,6.3-5.8,13-7.3,19.8,3.1,1.6,5.7,3.8,7.2,7.5-2.5-.7-5.2-1.9-8.1-3.2-.7,6.3-.9,12.7-.5,18.9h0ZM580.44,555.6c.6,1.8,1.4,3,2.4,3.9,0-1.4.3-2.7.5-3.9-.3-.9-.3-1.7.6-2.2.6-1.6,1.4-3,2.5-4,4.8-.1,7.9,8.1,3.7,9.8,1.1,2.1,3.8,2.7,7.3,2.4-.6,6.8-4.2,10.4-11,11-.9-1.1-2.2-1.9-3.7-2.4v-.6c-1.8.2-2.7-2.2-5-.2-1.5-5.5-1-10.1,2.7-13.8ZM558.54,580.2c-6.7,2.5-17.7-1.2-14.8-10.4,3.9.2,8-.4,12.6-2.2,3,5-2,7.3,2.2,12.6h0ZM535.04,511.4c8.5-1.3,10.2,22,18.3,22-2.8,4.9-7.6,7.9-13.5,9.8-6-3-17.8-29.8-4.8-31.8ZM517.54,544.7c1.9,3.4-.9,5.2-3.3,7.1-1.3-3.2-.4-5.6,3.3-7.1ZM410.84,514.6c4.5-2.5,6.1,3.4,9.3,4.9.9-5.4,7.7-5.6,12-6,1.4,10.5-1.4,19.6-9.8,26.8-4.5-2.9-6.3-14-13.1-9.8,0-5.5.8-10.8,1.6-15.9Z"/>
  <path d="M742.14,648.6c-12.8-10.5-24.7-14.2-37.1-21.9-5.7,9.5-5.2,18.2-11.9,27.8-2.5,1.4-5.3.7-8.1.5,6.1,4.9,12.1,9.9,17.9,15.1,1.7-1.1,3.4-1.6,5.3-1.1,0,1.4-.8,2.8-1.7,4.3,2.4,2.2,4.7,4.4,7.1,6.7,5.7,5.5,11.2,11.2,16.5,17,7.8-3.6,14.2-16.6,23.3-10.7-4.3,4.5-10.8,10.3-17.3,17.4,6.4,7.3,12.5,14.9,18.3,22.6.2-.7.3-1.4.4-2.1,8.7,2,18,2.6,28.4-.5,1.8,17.3,16,16.5,27.9,12,.5,1.1,1.1,2.2,1.6,3.3-9,8-24.9,16.7-37.8,18.1,3.4,5.7,6.6,11.4,9.5,17.1,34.7,67.6,56.3,182.1,26.5,285.8-10.5,36.3-26.2,70.4-46.8,101.5,5.8,4.7,11,12.5,6.7,18.1-6.7.5-13.4.8-20,.7-22.2,29.4-49,55.8-79.9,78.4-50.6,37-112.2,59.3-178.3,64.5-78.7,6.1-149.3-7.8-209.8-41.5-36.2-20.2-68.9-47.5-97.5-81.4-1.1,1.6-2.5,2.8-4.3,3.3-.8-2.6.5-4.5,1.7-6.4-11-13.2-21.3-27.5-31-42.6-.3-.5-.6-1-.9-1.4v2.7c-7.8-5.1-21.2,4.8-27.7-3.3,3.8-5.9,9.9-12.4,18.2-15.6-5-9-9.7-18.2-14-27.5-7.9-1.5-15.7-3.2-23.3-5.4,5.8-4.5,10-4.6,16.8-9.7-3.9-9.6-7.4-19.2-10.4-28.9-3.5-4.1-9.7-5.2-11.9-2.4-4.9-2-.3-8.6-2.2-12.6,1.7.8,4.3,2.1,6.8,3.8.9-1.7,1.8-3.4,2.6-5.1-1.2-4.7-2.3-9.4-3.3-14v-.4c-1.2-.9-2.3-1.9-3.3-3.3.8-.5,1.6-.9,2.4-1.3-1.4-7-2.6-14-3.6-20.9-7,.6-14.1,2.7-20.7,5.7-1.6-3.3,1-5.1,0-8.2-2.9-1.4-8,4.1-10.9,2.7-2.2-4.4-4.4-8.8-6.6-13.1,3.4-.3,7.4-2,11.5-4.4,5.6-7.2-3.4-18.4-13.1-9.8-3-2.9-5.9-6.1-8.2-10.9,2.8-2.7,2.9-6.3,8.2-8.2-9-4.9-17.1-12.6-30.6-3.8-1.1-3-3.6-2.1-5.4-3.2.2,10.2.7,20.2,1.7,30.2.8,8.9,1.9,17.8,3.2,26.6.5-.7,1.1-1.4,1.6-2.2,2.9,1.9,1.4,4.2-1,6.6,2,13.3,4.5,26.4,7.4,39.2h0c3.9-1.6,1.8-5.4,4.4-7.6,4.3-2,6.5,2.3,10.4,1.6,2-4.5,6.6-8.1,3.8-14.2,18-8,27.3-28.6,39.4-6-14.6,3.8-9.6,20.8-18.1,29.5-5.7-9.2-15.2-7.3-24.6-5.5-4,2-3.2,5.6-.5,9.8,3.8.4,7.4,1.4,12.6-2.2,1.2,8,1.2,15.6-1.1,22.4-6.4-3.5-12.3-1.9-18.6,2.1,4.5,15.6,9.8,30.8,15.7,45.5,17.7,43.9,41.5,83.8,70.7,118.8,37.9,45.4,84.9,82.1,138.6,108.4.2-.2.4-.4.5-.6,2.4.4,6.2,2.7,9.4,5.3,25.6,11.8,52.7,21.4,81,28.5,135.5,33.9,247.4-10.6,302-40.1,3.3-1.7,6.6-3.4,9.9-5.2,22.3-11.7,47.5-25.1,64.1-43.1,2.1-2.2,4.3-6.5,6.4-10.7,1.3-2.7,2.9-5.8,4.8-8.9-2.5-1-4.9-2.2-7.3-3.5,2.6-10,4.2-21.1-8.4-31.4,6.1-5.2,9.1-14.1,1.7-19,5.9-1.7,10.1,5.7,16,3.8,4.5-5.3,7.3-11,10.9-16.5,11.7-1.5,24.8-10.7,37-15.3,9.1,10.9,2,22-10,26.3-2.6,3.3,3.7,8.3,2.3,11.8-4.8.6-8.5-5-13.9-.7-3.3,8.8,10.7,8.8,13.9,15.7,2.3,5,0,15-5.3,23.5,2.6,3.3,4.1,7.4,4.3,12.1.3,6.4-1.7,13.4-3.6,20.1-1.5,5.3-3,10.7-3.2,15-2,59.2,50.7,142.4,87.6,185.3,10-6.5,22.1-10.3,33.9-13.9,26-8,42.2-14.1,44-36.2-1.8-1.7-6.2-2.1-12-2.4-3.1-.2-6.4-.3-9.4-1-2.5-.6-4.6-2.3-5.6-4.6-7-16-14.7-31.1-22.1-45.7-14.2-28-27.7-54.5-35.8-85.2-1.2-4.5-2.2-9.1-3.1-13.7-9.8-1.2-17.4-14.6-25.6-24.4,4.9-7.2,14.9-3.5,21.7-8.9-3-55.4,9.8-116.3,21.3-171.6,5.5-26.2,10.6-50.9,13.3-71.8,9.6-75.4,6.4-145.4-9.1-202.6-1.5-5.6-3.1-11.1-4.8-16.6-1.5-.8-2.7-2.2-3.6-4.8-4.4,4.3-10.4,6.1-15.3,4.9,1.4-7.6,7.8-9.9,15.2-11.6-8.2-24.4-18.1-47.6-29.5-69.7-2.1,1.2-4.3,2.6-6.5,4.1-10,7.1-14.4,23.1-26.3,21.3,10.6-5.2,20.7-22.1,30.1-30.4-19.9-37.2-44.2-70.8-72.5-100.2-8.3,6.8-19.6,10.2-23.9,22.1h-.1ZM31.74,978.8c-2.9-4.6-1.6-7.8,1.6-10.4,4.8,3.2,4,8.1-1.6,10.4ZM40.54,1001.8c0-4.2,8.9-8,12-6-1.2,4.2-8.7,4.4-12,6ZM71.64,1107.9c.8-3,9.4-6.4,12-6,.6,5.7-8.2,4.2-12,6ZM94.64,1099.1c-4.1-3.8-6-14.7-7.7-20.8,10.6,2.8,39.4,1.4,24.1,18.1-5.5,1-9.6-2.1-14.2-3.8-2.7,1.5-3.5,3.7-2.2,6.5h0ZM110.74,1120.9c-1.7,5.9-5.1,10.5-10.3,13.9,2.3-5.5,2-12.9,10.3-13.9ZM103.34,1154.1c6.2-5.4,13.4-10.2,18.6-16.4,4.8,7.8,0,17.9-2.6,23.9-7.1-2.8-15.8,5.1-16-7.5ZM152.04,1203.1c-1.3-4.3,5.5-5,7.7-3.8,0,4-5,.6-7.7,3.8ZM165.54,1197c-17.2,1.9-22.4-12.3-26.5-28.2-6.3.3-6.3,8.3-11.9,3,2.2-6.6,12.1-7.5,12.5-15.5,10.7.1,8.6,17.4,14.7,23.8,3.8-1.1,3.6-5.2,7.7-6.1,5.6,4.1,4.3,16.9,3.5,23h0ZM184.84,1238.6c0-4.3,1.1-8.1,7.1-10.4,2.4,5.1-3.3,7.4-7.1,10.4ZM192.54,1221.1c-.2-2.8,7.2-5.5,7.7-1.1-3.3,2.3-5.1.6-7.7,1.1ZM382.44,1370.7c-1.9,3.5.6,7.7.6,11.5-5.9-2.8-12.9.3-18.1-6.8,14.7-7.6-1.8-20.8,1.1-30.6,8.2.7,5.7-5.1,9.6-9.7,15.8,9.1,21.7,24,6.8,35.6ZM780.44,1336.8c0-.3.3-.5.4-.7-.1.2-.3.4-.4.7ZM884.94,866.9c1.8,3.6.9,6.4,3.8,10.4-2.3,2.9-4.7,5.7-9.8,7.7-3.2-7.8-.2-13.5,6-18.1h0ZM818.74,1387.6c5.4-10.4-3.8-23.5,6.8-33,6.2-1.8,10.7,5.7,17,3.1,3.9,12.4-9.7,25.8-23.8,29.9ZM855.44,1393.3c3,3.1,6.4,3.5,9.3,6.9,6-.3,1.2-4.9,6.6-7.6,5.5,6.2-3.1,19.4,8.3,27,4.1-2.5,0-6.4,4.2-8.9,4.3-4.6,7.1-.6,10.8-1.6,0,7-8.7,12.5-7.1,19.8-8.8-1.3-12.5-8.2-21.2-9.1-8.1-.8-18.1,5.9-25.1-1.9,10.1-7.2,8.3-16.6,14.2-24.6h0ZM843.24,1305c-18.2,16.8-28.3-11.9-45.2-2.8,2.9-5.3.2-11.7-.3-17.6,4.9.2,9,5.3,14,5.2,4-1.6,2.8-4.2,6.3-5.9,6.5,14.9,20.7,11,25.2,21.1ZM856.54,796.3c-4.4,7.8-16.9,4.7-23,.5,1.2-1.1.8-2.8,2.2-3.8,5.5,1.8,12,.6,18.6-1.1.7,1.5,1.5,2.9,2.2,4.4h0ZM839.04,769.5c4.6-.4,5.5-6.6,8.8-4.4,4.8,4-.8,11.6-4.4,15.9-9.6-2.3-15.6-15.3-23-24.1,9-4,12,9.6,18.6,12.6ZM771.74,686.9c3.5,2.6,4.1,5.9-1.6,7.7-2.3-3.5-2.8-6.4,1.6-7.7Z"/>
  <path d="M674.74,609.9c-2.4,3.2,0,5.8,2.9,8.3,15.3,3,27.8-13.7,42.1-17.2,6.4,9,13.4,17.9,12.6,27.9,6.9,5.4,11.6-4.5,17.4-6.8.8-3.5.3-6.8,1.2-10.4-12.2-11.6-25.1-22.4-38.5-32.4-11.1,3.8-23.4,12.1-11.5,24.2-7.9,8-16,15-26.2,6.4Z"/>
</svg>